<svg width="352" height="235" viewBox="0 0 352 235" fill="none" xmlns="http://www.w3.org/2000/svg">
<path d="M262.806 40.6531C250.289 16.6003 223.701 0 192.923 0C154.408 0 122.459 25.9944 116.428 60.0583C91.9101 60.4659 72.168 78.9824 72.168 101.773C72.168 124.563 92.3513 143.496 117.251 143.496H259.36C290.076 143.496 314.975 120.451 314.975 92.0249C314.975 63.5992 291.916 42.3032 262.809 40.6559L262.806 40.6531Z" fill="#E2EAFF"/>
<path d="M76.8849 234.977C76.752 234.977 76.6333 234.884 76.6078 234.748L62.9789 164.446H14.0249C13.8694 164.446 13.7422 164.319 13.7422 164.163C13.7422 164.008 13.8694 163.88 14.0249 163.88H63.2107C63.3465 163.88 63.4624 163.977 63.4878 164.11L77.162 234.64C77.1931 234.793 77.0913 234.943 76.9386 234.972C76.9217 234.974 76.9019 234.977 76.8849 234.977Z" fill="black"/>
<path d="M27.6756 234.977C27.5427 234.977 27.424 234.884 27.3985 234.748L13.7243 164.217C13.6932 164.064 13.795 163.914 13.9477 163.886C14.1004 163.858 14.2503 163.957 14.2786 164.11L27.9527 234.641C27.9838 234.793 27.8821 234.943 27.7294 234.972C27.7124 234.975 27.6926 234.977 27.6756 234.977Z" fill="black"/>
<path d="M0.333483 234.977C0.316517 234.977 0.296724 234.977 0.279759 234.972C0.12707 234.941 0.0252766 234.793 0.05638 234.641L13.7306 164.11C13.7617 163.957 13.9087 163.858 14.0614 163.886C14.2141 163.917 14.3159 164.064 14.2848 164.217L0.610586 234.748C0.585138 234.884 0.466379 234.977 0.333483 234.977Z" fill="black"/>
<path d="M49.521 234.977C49.504 234.977 49.4842 234.977 49.4673 234.972C49.3146 234.941 49.2128 234.793 49.2439 234.641L62.9181 164.11C62.9492 163.957 63.0962 163.858 63.2489 163.886C63.4016 163.917 63.5034 164.064 63.4723 164.217L49.7981 234.748C49.7726 234.884 49.6539 234.977 49.521 234.977Z" fill="black"/>
<path d="M65.4904 161.273H11.082V164.163H65.4904V161.273Z" fill="white"/>
<path d="M65.488 164.447H11.0796C10.9241 164.447 10.7969 164.319 10.7969 164.164V161.274C10.7969 161.118 10.9241 160.991 11.0796 160.991H65.488C65.6435 160.991 65.7707 161.118 65.7707 161.274V164.164C65.7707 164.319 65.6435 164.447 65.488 164.447ZM11.3624 163.881H65.2052V161.557H11.3624V163.881Z" fill="black"/>
<path d="M60.549 189.6H6.14062V192.49H60.549V189.6Z" fill="white"/>
<path d="M60.5533 192.776H6.14213C5.98662 192.776 5.85938 192.649 5.85938 192.493V189.603C5.85938 189.448 5.98662 189.32 6.14213 189.32H60.5505C60.706 189.32 60.8332 189.448 60.8332 189.603V192.493C60.8332 192.649 60.706 192.776 60.5505 192.776H60.5533ZM6.42772 192.21H60.2705V189.886H6.42489V192.21H6.42772Z" fill="black"/>
<path d="M55.6115 217.93H1.20312V220.82H55.6115V217.93Z" fill="white"/>
<path d="M55.6158 221.103H1.20463C1.04912 221.103 0.921875 220.976 0.921875 220.82V217.93C0.921875 217.774 1.04912 217.647 1.20463 217.647H55.613C55.7685 217.647 55.8957 217.774 55.8957 217.93V220.82C55.8957 220.976 55.7685 221.103 55.613 221.103H55.6158ZM1.49022 220.537H55.333V218.213H1.48739V220.537H1.49022Z" fill="black"/>
<path d="M11.4902 101.682C10.8285 97.3148 9.29598 94.9655 11.7107 87.0715C14.1255 79.1775 17.8268 72.894 17.8268 72.894L42.3787 80.9409L42.8396 86.4658L67.6177 109.251C72.0174 113.295 73.5528 119.593 71.5113 125.214L62.0049 151.384L65.3443 156.92C66.0342 158.061 65.2114 159.519 63.8796 159.519H41.553C39.0223 159.519 37.2381 157.033 38.0468 154.633L49.1253 121.767L32.8724 107.034L30.9553 178.324L35.9827 187.432C36.5143 188.394 35.8187 189.575 34.7216 189.575H11.3997C9.27336 189.575 7.57964 187.8 7.67577 185.674L11.4902 101.685V101.682Z" fill="white"/>
<path d="M34.7208 189.858H11.3989C10.2933 189.858 9.26405 189.416 8.5006 188.618C7.73715 187.817 7.34412 186.767 7.39502 185.663L11.2094 101.702C11.0765 100.836 10.9097 100.046 10.7485 99.2794C10.1038 96.2367 9.49591 93.3611 11.4441 86.9926C13.8391 79.1581 17.5489 72.818 17.5856 72.7557C17.6535 72.6425 17.7892 72.5887 17.9164 72.6312L42.4683 80.678C42.5758 80.712 42.6521 80.811 42.6606 80.9243L43.1102 86.3388L67.8063 109.05C72.305 113.188 73.863 119.573 71.7734 125.319L62.3123 151.362L65.581 156.782C65.9571 157.407 65.9684 158.16 65.6093 158.794C65.2502 159.431 64.6027 159.81 63.8731 159.81H41.5465C40.2487 159.81 39.0696 159.205 38.3118 158.149C37.554 157.093 37.3589 155.783 37.7746 154.552L48.7936 121.86L33.1345 107.666L31.2372 178.262L36.2279 187.305C36.5248 187.846 36.5163 188.485 36.2024 189.017C35.8886 189.55 35.3344 189.867 34.7179 189.867L34.7208 189.858ZM17.956 73.2369C17.317 74.3606 14.1218 80.1572 11.9814 87.1568C10.0784 93.3837 10.6439 96.0613 11.2999 99.1606C11.4667 99.9417 11.6364 100.751 11.7721 101.643C11.7721 101.66 11.7749 101.68 11.7749 101.699L7.96053 185.689C7.91812 186.64 8.2546 187.54 8.9106 188.228C9.5666 188.916 10.4516 189.295 11.4017 189.295H34.7236C35.1392 189.295 35.5125 189.083 35.7217 188.723C35.9338 188.366 35.9395 187.936 35.7387 187.571L30.7113 178.463C30.6858 178.418 30.6745 178.369 30.6773 178.318L32.5944 107.029C32.5973 106.919 32.6651 106.82 32.7669 106.777C32.8687 106.735 32.9846 106.755 33.0666 106.828L49.3196 121.56C49.4016 121.637 49.4327 121.753 49.3987 121.86L38.3203 154.73C37.964 155.786 38.1337 156.912 38.7812 157.818C39.4315 158.724 40.441 159.244 41.555 159.244H63.8816C64.4047 159.244 64.8685 158.973 65.1258 158.517C65.3831 158.061 65.3746 157.523 65.1031 157.076L61.7638 151.54C61.7185 151.466 61.71 151.379 61.7411 151.297L71.2475 125.127C73.2579 119.596 71.7564 113.451 67.4274 109.469L42.6493 86.6841C42.5984 86.636 42.5645 86.5709 42.5588 86.5002L42.1149 81.162L17.9589 73.2454L17.956 73.2369Z" fill="black"/>
<path d="M41.5383 153.369C41.1029 153.369 40.6646 153.369 40.2292 153.36C40.0736 153.36 39.9492 153.23 39.9492 153.074C39.9492 152.918 40.0793 152.8 40.2348 152.794C51.1238 152.944 61.846 151.13 61.9535 151.11C62.1118 151.084 62.2532 151.186 62.2786 151.342C62.3041 151.495 62.2023 151.642 62.0468 151.667C61.9421 151.684 52.006 153.369 41.5327 153.369H41.5383Z" fill="black"/>
<path d="M12.0199 184.208C11.8786 184.208 11.757 184.103 11.74 183.959C11.723 183.803 11.8333 183.665 11.9888 183.645C23.4518 182.286 30.7442 178.12 30.8149 178.08C30.9506 178.001 31.1231 178.049 31.2022 178.182C31.2814 178.318 31.2334 178.491 31.1005 178.57C31.0269 178.612 23.6328 182.835 12.0567 184.208C12.0454 184.208 12.0341 184.208 12.0228 184.208H12.0199Z" fill="black"/>
<path d="M31.7938 106.551C31.7316 106.551 31.6694 106.531 31.6157 106.488C31.5506 106.434 25.1207 101.212 22.3751 97.8527C19.5815 94.4336 19.6974 89.2879 19.7059 89.07C19.7115 88.9171 19.8359 88.7954 19.9886 88.7954C19.9915 88.7954 19.9943 88.7954 19.9971 88.7954C20.1526 88.8011 20.277 88.9313 20.2714 89.0869C20.2714 89.1379 20.1555 94.2411 22.8134 97.4932C25.5222 100.808 31.9069 105.996 31.9719 106.047C32.0935 106.146 32.1133 106.324 32.0143 106.446C31.9578 106.514 31.8758 106.551 31.7938 106.551Z" fill="black"/>
<path d="M55.4732 29.7446C55.4732 29.7446 55.4902 32.5411 54.9332 35.6375C54.3761 38.734 53.7032 40.2058 52.1536 40.4011C50.6041 40.5992 49.7361 40.7209 49.7361 40.7209L49.4957 43.8853L43.2383 44.2391L44.9433 34.4969L47.7341 29.7786L55.4732 29.7446Z" fill="white"/>
<path d="M43.2369 44.5224C43.1549 44.5224 43.0785 44.4884 43.0248 44.4262C42.9683 44.3611 42.9428 44.2733 42.957 44.1884L44.662 34.4462C44.6676 34.4122 44.679 34.3811 44.6959 34.3499L47.4867 29.6316C47.5376 29.5467 47.6281 29.4929 47.7299 29.4929L55.469 29.459C55.6245 29.459 55.7518 29.5835 55.7518 29.7392C55.7518 29.7675 55.7631 32.5979 55.206 35.683C54.6688 38.672 54.0015 40.4466 52.1834 40.6787C51.0976 40.8174 50.3454 40.9193 49.9948 40.9674L49.7714 43.9025C49.7601 44.0441 49.647 44.1544 49.5056 44.1629L43.2482 44.5167C43.2482 44.5167 43.2369 44.5167 43.2312 44.5167L43.2369 44.5224ZM45.2105 34.5962L43.5762 43.9365L49.2285 43.6167L49.4491 40.7014C49.4604 40.5683 49.5594 40.4608 49.6923 40.4438C49.6923 40.4438 50.5632 40.3221 52.1127 40.1239C53.4105 39.9598 54.075 38.771 54.649 35.5896C55.0958 33.1187 55.1693 30.8147 55.1834 30.0336L47.8911 30.0647L45.2077 34.599L45.2105 34.5962Z" fill="black"/>
<path d="M50.3233 35.6176C50.1876 35.6176 50.0688 35.5214 50.0462 35.3855C49.9868 35.0515 49.8624 34.8279 49.6786 34.7176C49.4298 34.5704 49.1188 34.6694 49.1131 34.6694C48.9661 34.7204 48.8049 34.644 48.754 34.494C48.7031 34.3468 48.7795 34.1854 48.9293 34.1345C48.9519 34.126 49.4835 33.9477 49.9642 34.2279C50.2979 34.4232 50.5128 34.7798 50.6033 35.2836C50.6315 35.4365 50.5297 35.5837 50.3742 35.612C50.3573 35.6148 50.3403 35.6176 50.3233 35.6176Z" fill="black"/>
<path d="M46.3824 41.0749C46.5719 40.9532 48.882 39.4078 49.9706 37.0784C49.9706 37.0784 48.7548 38.0492 47.9206 36.5038C47.0865 34.9612 48.1242 33.0082 49.7727 32.8781C51.4212 32.7479 51.6389 34.7433 51.6389 34.7433C51.6389 34.7433 52.8208 34.2197 52.8321 32.8271C52.8321 32.8271 53.5051 33.4611 54.0847 32.2865C54.0847 32.2865 55.5155 32.7252 56.6409 31.1175C57.7663 29.5099 57.0509 27.571 55.2271 27.5993C55.2271 27.5993 55.5042 24.9642 52.3995 23.416C49.2948 21.8678 47.6096 24.4236 47.6096 24.4236C47.6096 24.4236 46.8066 22.431 43.1392 24.1066C39.469 25.7794 41.1033 28.7315 41.1033 28.7315C41.1033 28.7315 39.8055 30.2373 39.9214 32.4025C40.0373 34.5678 42.3899 36.8972 42.3899 36.8972C42.3899 36.8972 42.0223 38.8955 42.8706 39.9229C43.7188 40.9504 46.3852 41.0721 46.3852 41.0721L46.3824 41.0749Z" fill="black"/>
<path d="M44.2867 46.4215L62.6236 53.4862L81.4751 42.0825L86.1661 56.2317C86.1661 56.2317 66.3221 72.2829 60.3078 73.7123C54.2936 75.1416 36.1094 64.6805 36.1094 64.6805L44.2867 46.4215Z" fill="#42A3D6"/>
<path d="M79.1278 41.2135C79.1533 41.089 79.1929 37.4406 79.5718 35.8669C79.9507 34.2932 82.4587 35.7876 82.7754 38.9888C83.0921 42.19 79.125 41.2135 79.125 41.2135H79.1278Z" fill="white"/>
<path d="M80.3826 41.6379C79.6785 41.6379 79.1045 41.4992 79.0593 41.4878C78.9151 41.4539 78.8246 41.3124 78.8472 41.168C78.8529 41.1171 78.8557 40.9586 78.8642 40.7208C78.9009 39.6283 78.9886 37.0752 79.2968 35.7987C79.4325 35.2327 79.8255 34.9241 80.3487 34.9553C81.4712 35.0317 82.8284 36.662 83.0575 38.9603C83.148 39.8717 82.9246 40.568 82.3902 41.0322C81.836 41.5133 81.0527 41.6379 80.3826 41.6379ZM79.4212 40.984C79.9556 41.0774 81.2959 41.2331 82.0198 40.6048C82.4043 40.2708 82.5626 39.7358 82.492 39.0197C82.2686 36.7781 80.9707 35.5695 80.3062 35.5242C80.2158 35.5185 79.9471 35.5015 79.8425 35.9374C79.5484 37.1573 79.4636 39.6707 79.4269 40.7463C79.424 40.8453 79.4212 40.9246 79.4184 40.9897L79.4212 40.984Z" fill="black"/>
<path d="M127.771 81.408C128.934 77.7709 126.934 73.8791 123.304 72.7158C123.032 72.6281 122.761 72.5658 122.489 72.512C122.679 69.659 122.436 66.8371 121.794 64.1255C122.054 64.0293 122.311 63.9218 122.563 63.7916C125.95 62.0424 127.282 57.876 125.538 54.4795C123.793 51.0859 119.634 49.7499 116.243 51.4991C115.992 51.6293 115.754 51.7765 115.525 51.9322C113.696 49.8348 111.544 47.9979 109.115 46.495C109.231 46.243 109.336 45.9826 109.423 45.7138C110.585 42.0767 108.586 38.1849 104.956 37.0216C101.328 35.8583 97.4428 37.8622 96.2806 41.4965C96.193 41.7682 96.1308 42.0399 96.077 42.3116C93.2297 42.122 90.4134 42.3654 87.7074 43.0079C87.6112 42.7475 87.5038 42.4899 87.3737 42.2352C85.6291 38.8415 81.4697 37.5056 78.0823 39.2548C74.6949 41.0011 73.3631 45.1703 75.1077 48.5668C75.2378 48.8187 75.3848 49.0565 75.5403 49.2857C73.4479 51.1198 71.6128 53.2738 70.1142 55.7079C69.8625 55.5919 69.6052 55.4843 69.3338 55.3994C65.706 54.2361 61.8209 56.24 60.6587 59.8743C59.4966 63.5113 61.4957 67.4032 65.1263 68.5664C65.3978 68.6542 65.6692 68.7165 65.9407 68.7702C65.7512 71.6233 65.9944 74.4452 66.6362 77.1567C66.3761 77.253 66.1188 77.3605 65.8671 77.4907C62.4797 79.2371 61.1479 83.4063 62.8925 86.8027C64.6371 90.1964 68.7965 91.5324 72.1868 89.7832C72.4384 89.653 72.676 89.5058 72.905 89.3501C74.7344 91.4474 76.8862 93.2844 79.3151 94.7873C79.1992 95.0392 79.0946 95.2996 79.0069 95.5685C77.8448 99.2056 79.8439 103.097 83.4745 104.261C87.1023 105.424 90.9874 103.42 92.1495 99.7858C92.2372 99.5141 92.2994 99.2424 92.3531 98.9707C95.2005 99.1603 98.0168 98.9169 100.723 98.2744C100.819 98.5348 100.926 98.7923 101.056 99.0442C102.801 102.438 106.96 103.774 110.348 102.025C113.735 100.275 115.067 96.1091 113.322 92.7126C113.192 92.4607 113.045 92.223 112.89 91.9937C114.982 90.1596 116.817 88.0057 118.316 85.5715C118.568 85.6876 118.825 85.7923 119.096 85.88C122.724 87.0433 126.609 85.0394 127.771 81.4052V81.408ZM106.42 74.5584C104.263 81.3118 97.0497 85.0309 90.3088 82.8713C83.5706 80.7089 79.8552 73.4829 82.0126 66.7295C84.1701 59.9762 91.3832 56.2542 98.1242 58.4166C104.862 60.579 108.578 67.8051 106.42 74.5584Z" fill="white"/>
<path d="M85.5832 104.878C84.848 104.878 84.1072 104.762 83.3861 104.533C79.6141 103.321 77.5274 99.2624 78.7376 95.4838C78.797 95.297 78.8705 95.1045 78.9581 94.8979C76.6876 93.4657 74.6376 91.7279 72.8562 89.7211C72.6696 89.84 72.4915 89.9447 72.3161 90.0353C70.6111 90.9155 68.6657 91.0769 66.8363 90.491C65.0097 89.9051 63.5195 88.6399 62.6402 86.9303C60.8277 83.4036 62.216 79.0561 65.7364 77.239C65.9088 77.1484 66.0983 77.0635 66.3047 76.9815C65.7109 74.3633 65.4875 71.6801 65.6431 68.9997C65.4253 68.9516 65.2274 68.9007 65.0408 68.8384C61.2688 67.627 59.182 63.5682 60.3894 59.7896C60.4375 59.6396 60.5958 59.5575 60.7457 59.6056C60.8955 59.6537 60.9775 59.8122 60.9295 59.9622C59.8182 63.4436 61.7382 67.1826 65.2133 68.2978C65.448 68.3714 65.6968 68.4336 65.9937 68.4931C66.1351 68.5214 66.2312 68.6459 66.2227 68.7903C66.0361 71.581 66.2679 74.3746 66.9098 77.0918C66.9437 77.2305 66.8674 77.3721 66.7317 77.423C66.4517 77.5277 66.2086 77.6325 65.9937 77.7428C62.7504 79.4156 61.4695 83.4235 63.1406 86.6728C63.9493 88.2465 65.3235 89.4126 67.0059 89.9532C68.6884 90.4938 70.481 90.3438 72.0532 89.5343C72.2709 89.4211 72.4971 89.2852 72.7431 89.1182C72.8619 89.039 73.0202 89.0588 73.1164 89.1663C74.9515 91.2693 77.0863 93.0808 79.4614 94.5498C79.583 94.6262 79.6283 94.779 79.5689 94.9092C79.4445 95.181 79.3483 95.4272 79.272 95.6593C78.1608 99.1407 80.0807 102.88 83.5558 103.995C85.2382 104.535 87.0309 104.385 88.603 103.576C90.1751 102.766 91.3373 101.391 91.8745 99.7039C91.948 99.469 92.0103 99.2199 92.0668 98.9199C92.0951 98.7784 92.2223 98.685 92.3637 98.6907C95.1489 98.8775 97.9369 98.6454 100.649 98.0029C100.787 97.9689 100.928 98.0453 100.979 98.1812C101.081 98.4586 101.186 98.702 101.299 98.9227C102.108 100.496 103.482 101.663 105.164 102.2C106.847 102.741 108.639 102.591 110.211 101.781C113.455 100.109 114.736 96.1008 113.064 92.8515C112.951 92.6336 112.821 92.4156 112.649 92.1609C112.57 92.042 112.589 91.8835 112.697 91.7901C114.795 89.9504 116.602 87.8134 118.069 85.433C118.143 85.3113 118.298 85.266 118.428 85.3255C118.7 85.45 118.946 85.5491 119.178 85.6227C120.86 86.1633 122.653 86.0133 124.225 85.2038C125.797 84.3943 126.959 83.0187 127.496 81.3318C128.608 77.8504 126.688 74.1114 123.213 72.9962C122.978 72.9198 122.732 72.8604 122.432 72.8009C122.291 72.7726 122.195 72.6481 122.203 72.5038C122.39 69.713 122.158 66.9194 121.516 64.2022C121.482 64.0635 121.558 63.922 121.694 63.871C121.974 63.7663 122.214 63.6616 122.432 63.5512C125.675 61.8784 126.956 57.8706 125.285 54.6213C124.477 53.0476 123.102 51.8814 121.42 51.3437C119.738 50.803 117.945 50.9531 116.373 51.7626C116.158 51.8729 115.932 52.0116 115.683 52.1786C115.564 52.2579 115.406 52.2381 115.312 52.1305C113.477 50.0275 111.342 48.2161 108.967 46.7471C108.846 46.6707 108.8 46.5178 108.86 46.3876C108.984 46.1159 109.08 45.8697 109.157 45.6376C110.268 42.1562 108.348 38.4172 104.873 37.302C103.191 36.7614 101.398 36.9114 99.8257 37.7209C98.2536 38.5304 97.0914 39.906 96.5542 41.5929C96.4807 41.825 96.4156 42.0797 96.3619 42.3769C96.3364 42.5185 96.2064 42.6147 96.065 42.6062C93.277 42.4194 90.4918 42.6515 87.7802 43.294C87.6416 43.3251 87.5003 43.2515 87.4494 43.1157C87.3447 42.8355 87.2401 42.592 87.1298 42.3769C86.3212 40.8032 84.947 39.6371 83.2645 39.0965C81.5821 38.5559 79.7894 38.7059 78.2173 39.5154C75.6301 40.8513 74.2276 43.6761 74.7252 46.5461C74.7507 46.699 74.6489 46.8461 74.4962 46.8744C74.3407 46.8999 74.1965 46.798 74.1682 46.6452C73.6253 43.5289 75.1494 40.4607 77.9572 39.0144C79.6622 38.1342 81.6076 37.9728 83.437 38.5587C85.2636 39.1446 86.7538 40.4098 87.6332 42.1194C87.7236 42.2948 87.8085 42.4817 87.8905 42.6883C90.5003 42.0939 93.1781 41.8703 95.8558 42.026C95.9038 41.808 95.9576 41.6071 96.0169 41.4231C96.6022 39.5918 97.8633 38.1002 99.5684 37.2199C101.273 36.3397 103.222 36.1783 105.048 36.7642C108.82 37.9757 110.907 42.0345 109.7 45.813C109.64 45.9998 109.567 46.1923 109.479 46.3989C111.75 47.8311 113.8 49.569 115.581 51.5757C115.77 51.454 115.946 51.3521 116.121 51.2616C117.826 50.3813 119.771 50.22 121.601 50.8059C123.428 51.3918 124.918 52.657 125.797 54.3665C127.61 57.8932 126.221 62.2435 122.698 64.0578C122.523 64.1484 122.336 64.2333 122.13 64.3154C122.723 66.9307 122.947 69.6139 122.791 72.2971C123.012 72.3452 123.207 72.399 123.394 72.4585C127.166 73.6671 129.252 77.7287 128.042 81.5073C127.457 83.3385 126.196 84.8302 124.491 85.7104C122.786 86.5907 120.84 86.752 119.011 86.1661C118.824 86.1067 118.632 86.0331 118.428 85.9453C117 88.221 115.264 90.273 113.262 92.059C113.384 92.2487 113.486 92.4241 113.576 92.5996C115.389 96.1263 114 100.477 110.48 102.291C108.775 103.171 106.83 103.333 105 102.747C103.174 102.161 101.683 100.896 100.804 99.186C100.714 99.0105 100.629 98.8209 100.547 98.6171C97.934 99.2115 95.2563 99.4351 92.5814 99.2794C92.5334 99.4973 92.4796 99.6983 92.4202 99.8823C91.8349 101.714 90.5738 103.205 88.8688 104.085C87.8367 104.618 86.717 104.886 85.5888 104.886L85.5832 104.878ZM94.2299 83.7688C92.8868 83.7688 91.538 83.5593 90.2204 83.1376C83.3437 80.9299 79.5406 73.5312 81.7405 66.6392C82.8065 63.3021 85.1081 60.5793 88.2185 58.9744C91.3288 57.3696 94.8774 57.0752 98.2083 58.1451C105.085 60.3528 108.888 67.7515 106.688 74.6435C105.622 77.9806 103.321 80.7034 100.21 82.3083C98.3299 83.2791 96.2856 83.7716 94.2299 83.7716V83.7688ZM94.2016 58.08C92.2336 58.08 90.2798 58.5499 88.4786 59.4782C85.504 61.0123 83.3013 63.6191 82.2805 66.8118C80.174 73.4038 83.8131 80.4883 90.3929 82.597C93.5796 83.6188 96.9755 83.3385 99.9501 81.8016C102.925 80.2676 105.127 77.6608 106.148 74.4681C108.255 67.8732 104.616 60.7915 98.0358 58.6829C96.7776 58.2781 95.4854 58.08 94.2016 58.08Z" fill="black"/>
<path d="M42.5424 41.7369L52.3061 44.1371C56.9801 45.8693 58.5239 48.5384 58.8972 51.2811L64.1169 67.754L77.2369 68.405L77.35 82.0023L58.8604 82.2966C52.996 82.3731 49.0798 79.5879 47.9686 75.2857L47.0072 72.727L44.7564 85.7809C44.6688 86.48 44.0015 86.9555 43.3115 86.8083L14.5465 80.6578C13.7548 80.488 13.3533 79.6021 13.7463 78.8945L28.1303 50.0725C29.8353 47.0043 35.1342 41.5388 42.5424 41.7398V41.7369Z" fill="#42A3D6"/>
<path d="M46.7375 72.5856C46.5961 72.5856 46.4745 72.478 46.4576 72.3337L45.072 60.2139C45.0551 60.0582 45.1653 59.9195 45.3209 59.8997C45.4736 59.8799 45.6149 59.9931 45.6347 60.1488L47.0202 72.2686C47.0372 72.4243 46.9269 72.5629 46.7714 72.5828C46.7601 72.5828 46.7488 72.5828 46.7403 72.5828L46.7375 72.5856Z" fill="black"/>
<path d="M63.6141 67.9156H63.6085L59.3162 67.8109C59.1607 67.8081 59.0363 67.6779 59.0391 67.5222C59.0419 67.3665 59.1805 67.2391 59.3275 67.2448L63.6198 67.3495C63.7753 67.3524 63.8997 67.4826 63.8969 67.6382C63.8941 67.7911 63.7668 67.9156 63.6141 67.9156Z" fill="black"/>
<path d="M77.0078 68.6544C77.0078 68.6544 77.9352 68.8214 79.1426 67.9638C80.35 67.1062 80.2369 65.9372 80.9127 64.6041C81.5885 63.271 83.0334 63.7012 83.2483 64.5305C83.4632 65.3598 83.0927 67.5109 83.0927 67.5109C83.0927 67.5109 84.7893 67.4119 85.3463 68.0459C85.9034 68.6771 85.6376 69.529 85.3011 69.9706C85.3011 69.9706 86.7912 69.8602 87.0825 70.9838C87.4105 72.2547 86.0843 73.1717 86.0843 73.1717C86.0843 73.1717 87.0768 73.5171 87.139 74.6294C87.221 76.0899 85.7591 76.5682 85.7591 76.5682C85.7591 76.5682 86.5198 77.0635 85.991 78.3514C85.6206 79.2543 81.7977 81.3431 77.3103 81.7705C72.823 82.1979 77.0078 68.6516 77.0078 68.6516V68.6544Z" fill="white"/>
<path d="M77.3119 82.0565C77.1677 82.0565 77.0432 81.9461 77.0319 81.7989C77.0178 81.6432 77.1309 81.5046 77.2864 81.4904C81.737 81.0658 85.4299 78.977 85.7324 78.2439C86.1594 77.208 85.6278 76.8202 85.6052 76.8033C85.5175 76.741 85.4694 76.6334 85.4864 76.5287C85.5034 76.4211 85.5741 76.3334 85.6758 76.2994C85.7267 76.2825 86.9285 75.8664 86.8606 74.6465C86.8097 73.7436 86.0265 73.452 85.9954 73.4379C85.8964 73.4011 85.8229 73.3134 85.8087 73.2086C85.7946 73.1039 85.8399 72.9992 85.9275 72.9397C85.9388 72.9313 87.0868 72.1161 86.8125 71.0575C86.5835 70.1716 85.3394 70.2537 85.3252 70.2537C85.215 70.2594 85.1075 70.2056 85.0566 70.1065C85.0029 70.0074 85.0114 69.8886 85.0792 69.8008C85.3479 69.4499 85.5825 68.7423 85.1358 68.2356C84.7965 67.8507 83.7163 67.7629 83.1084 67.7969C83.0264 67.7969 82.9387 67.7686 82.8822 67.7035C82.8256 67.6384 82.8002 67.5507 82.8143 67.4657C82.9133 66.8827 83.1367 65.2354 82.9727 64.6014C82.8992 64.3127 82.591 64.0777 82.2403 64.0381C81.8021 63.9928 81.4119 64.2447 81.1659 64.7316C80.9453 65.1675 80.8124 65.5864 80.6823 65.9911C80.4222 66.8063 80.179 67.5733 79.3053 68.1932C78.0159 69.1102 76.998 68.9376 76.9556 68.9291C76.8029 68.9008 76.7011 68.7536 76.7266 68.6007C76.7548 68.4479 76.899 68.346 77.0546 68.3715C77.0941 68.3771 77.9 68.496 78.9773 67.729C79.6955 67.2195 79.8934 66.5996 80.1423 65.8156C80.2723 65.408 80.4194 64.9467 80.6597 64.4712C81.0132 63.7721 81.6239 63.3985 82.2997 63.472C82.885 63.5343 83.3855 63.9391 83.5184 64.4542C83.6937 65.1335 83.5184 66.5628 83.4223 67.2167C83.9906 67.2223 85.0764 67.3072 85.5571 67.8535C86.0491 68.4111 86.0321 69.1272 85.7805 69.6989C86.3912 69.7782 87.1434 70.0895 87.3554 70.9075C87.6156 71.918 86.9992 72.7133 86.5807 73.1152C86.9256 73.353 87.3724 73.8115 87.4176 74.6097C87.477 75.6796 86.7956 76.3447 86.2244 76.6646C86.4365 76.9901 86.6118 77.5675 86.247 78.4562C85.7861 79.5799 81.7483 81.6291 77.3317 82.0508C77.3232 82.0508 77.3147 82.0508 77.3034 82.0508L77.3119 82.0565Z" fill="black"/>
<path d="M81.0519 68.4506C80.9331 68.4506 80.82 68.3742 80.7833 68.2553C80.7352 68.1053 80.8172 67.9468 80.9671 67.8986L82.9464 67.2618C83.0934 67.2137 83.2546 67.2958 83.3026 67.4458C83.3507 67.5958 83.2687 67.7543 83.1189 67.8024L81.1395 68.4393C81.1113 68.4477 81.083 68.4534 81.0519 68.4534V68.4506Z" fill="black"/>
<path d="M83.817 36.6932C83.817 36.6932 80.8848 39.7274 81.0035 40.6954C81.1534 41.9068 82.7707 41.9294 83.5964 41.253C83.5964 41.253 82.4286 42.838 83.5116 43.7041C84.2524 44.2956 85.7341 43.6673 85.7341 43.6673C85.7341 43.6673 85.604 44.791 86.3081 45.1476C87.5776 45.7929 88.7313 44.3919 88.7313 44.3919C88.7313 44.3919 88.9575 45.5665 90.3996 45.1929C91.8416 44.8193 94.1065 41.9606 93.5636 40.9048C93.0207 39.8491 91.5278 40.4689 91.5278 40.4689C91.5278 40.4689 91.6183 38.3178 89.2572 39.1302C89.2572 39.1302 89.1215 36.6224 86.7322 37.3951C86.7322 37.3951 86.0366 34.2619 83.817 36.6875V36.6932Z" fill="white"/>
<path d="M87.0083 45.6063C86.7453 45.6063 86.4654 45.5469 86.1798 45.4026C85.6199 45.1195 85.4785 44.494 85.4474 44.0666C84.9074 44.2279 83.9432 44.4119 83.3352 43.9251C82.6425 43.3732 82.6905 42.558 82.9337 41.8957C82.4756 42.0202 81.9837 42.0117 81.5821 41.8504C81.093 41.6551 80.7876 41.256 80.7197 40.7296C80.5897 39.6823 83.0977 37.0274 83.6067 36.4981C84.3475 35.6914 85.0374 35.3631 85.651 35.5301C86.3947 35.7282 86.7708 36.5915 86.9234 37.0529C87.5936 36.8915 88.1591 36.9651 88.6087 37.2736C89.1855 37.6699 89.4061 38.352 89.4909 38.7681C90.1893 38.5869 90.7492 38.652 91.162 38.9577C91.5776 39.2691 91.7275 39.7531 91.7812 40.0927C92.4344 39.9285 93.3816 39.937 93.8143 40.7777C94.0037 41.1485 93.9585 41.6551 93.6757 42.2891C93.113 43.543 91.6257 45.1705 90.4721 45.4705C89.9122 45.6148 89.44 45.5695 89.0696 45.3346C88.8688 45.2073 88.7303 45.0431 88.637 44.8931C88.2948 45.1959 87.7067 45.6092 87.0083 45.6092V45.6063ZM85.733 43.3845C85.7924 43.3845 85.8518 43.4043 85.9027 43.4411C85.9847 43.5005 86.0243 43.5996 86.013 43.7015C86.013 43.71 85.9225 44.6383 86.4343 44.8987C87.489 45.4337 88.5012 44.2279 88.5125 44.2166C88.5832 44.1317 88.6935 44.0949 88.801 44.1232C88.9084 44.1515 88.9876 44.2364 89.0102 44.344C89.0102 44.344 89.0837 44.6808 89.3778 44.8619C89.6096 45.0063 89.932 45.0261 90.3307 44.9242C91.2157 44.695 92.6182 43.2769 93.1611 42.0598C93.3618 41.6126 93.4184 41.239 93.3138 41.0409C92.8981 40.2314 91.6879 40.7154 91.637 40.738C91.5465 40.7748 91.4476 40.7635 91.3684 40.7069C91.2892 40.6503 91.244 40.5597 91.2496 40.4635C91.2496 40.4578 91.2694 39.7417 90.8255 39.4134C90.5116 39.1813 90.014 39.1785 89.3552 39.4049C89.2703 39.4332 89.1799 39.4219 89.1063 39.371C89.0328 39.3228 88.9876 39.2408 88.9819 39.153C88.9819 39.1445 88.9169 38.168 88.2948 37.7435C87.9357 37.4972 87.4409 37.4746 86.8273 37.6755C86.751 37.701 86.669 37.6925 86.6011 37.6529C86.5332 37.6133 86.4823 37.5453 86.4654 37.4689C86.389 37.1349 86.0723 36.232 85.5153 36.082C85.0205 35.949 84.438 36.4472 84.0337 36.8887C84.0337 36.8887 84.0308 36.8915 84.028 36.8944C82.8489 38.1143 81.2202 40.0899 81.2909 40.6673C81.3305 40.9899 81.503 41.2136 81.7999 41.3324C82.2777 41.5249 82.9903 41.3947 83.4229 41.0409C83.5332 40.9503 83.6915 40.956 83.7961 41.0551C83.9007 41.1541 83.9149 41.3126 83.8301 41.4287C83.7905 41.4853 82.8376 42.8071 83.6943 43.492C84.1948 43.8911 85.2608 43.5713 85.6312 43.4156C85.6652 43.4015 85.7047 43.393 85.7415 43.393L85.733 43.3845Z" fill="black"/>
<path d="M83.5986 41.539C83.5336 41.539 83.4714 41.5163 83.4177 41.4739C83.2989 41.3748 83.2819 41.1965 83.3809 41.0748L85.6599 38.3406C85.7589 38.2217 85.937 38.2048 86.0586 38.3038C86.1774 38.4029 86.1944 38.5812 86.0954 38.7029L83.8164 41.4371C83.7598 41.505 83.6806 41.539 83.5986 41.539Z" fill="black"/>
<path d="M85.7368 43.9533C85.6746 43.9533 85.6124 43.9335 85.5587 43.8911C85.4371 43.792 85.4173 43.6137 85.5163 43.492L88.2364 40.1125C88.3354 39.9908 88.5107 39.971 88.6351 40.07C88.7567 40.1691 88.7765 40.3474 88.6775 40.4691L85.9574 43.8486C85.9008 43.9194 85.8188 43.9533 85.7368 43.9533Z" fill="black"/>
<path d="M88.7317 44.6782C88.6723 44.6782 88.6129 44.6612 88.562 44.6216C88.4376 44.5281 88.4122 44.3498 88.5055 44.2253L90.4876 41.5619C90.5809 41.4373 90.7591 41.409 90.8835 41.5053C91.0079 41.5987 91.0333 41.777 90.94 41.9015L88.9579 44.5649C88.9013 44.6385 88.8165 44.6782 88.7317 44.6782Z" fill="black"/>
<path d="M61.0748 58.4905C60.9561 58.4905 60.843 58.414 60.8062 58.2923L59.1153 52.9768C59.0672 52.8268 59.1492 52.6683 59.2991 52.6202C59.4461 52.5721 59.6073 52.6542 59.6554 52.8042L61.3463 58.1197C61.3943 58.2697 61.3123 58.4282 61.1625 58.4763C61.1342 58.4848 61.1059 58.4905 61.0776 58.4905H61.0748Z" fill="black"/>
<path d="M242.141 151.942L219.993 199.198C216.979 205.629 215.107 212.538 214.465 219.614L213.094 234.711H244.248L243.544 211.029L269.077 156.162L242.139 151.942H242.141Z" fill="white"/>
<path d="M213.096 234.994C213.096 234.994 213.079 234.994 213.071 234.994C212.915 234.98 212.802 234.841 212.813 234.686L214.185 219.588C214.832 212.458 216.701 205.558 219.738 199.079L241.886 151.823C241.94 151.709 242.062 151.644 242.186 151.664L269.125 155.884C269.212 155.898 269.289 155.952 269.331 156.031C269.373 156.111 269.376 156.204 269.337 156.283L243.832 211.088L244.533 234.703C244.539 234.858 244.414 234.988 244.259 234.994H244.25C244.098 234.994 243.973 234.872 243.968 234.72L243.264 211.038C243.264 210.992 243.272 210.95 243.289 210.91L268.664 156.385L242.308 152.256L220.25 199.32C217.241 205.739 215.389 212.577 214.747 219.639L213.376 234.737C213.362 234.884 213.24 234.994 213.093 234.994H213.096Z" fill="black"/>
<path d="M282.43 153.589L279.034 204.587L299.532 234.717H262.991L254.672 215.623C251.222 207.706 249.944 199.011 250.968 190.435L255.729 150.541L282.433 153.589H282.43Z" fill="white"/>
<path d="M262.989 235C262.878 235 262.776 234.938 262.728 234.83L254.41 215.736C250.943 207.78 249.657 199.02 250.683 190.401L252.75 173.082C252.852 172.239 252.691 171.398 252.289 170.651L251.543 169.264C251.469 169.125 251.52 168.955 251.658 168.882C251.794 168.808 251.967 168.859 252.04 168.998L252.787 170.385C253.245 171.237 253.426 172.193 253.31 173.153L251.243 190.472C250.225 198.992 251.5 207.65 254.924 215.513L263.243 234.607C263.305 234.751 263.24 234.918 263.096 234.98C263.059 234.997 263.02 235.003 262.983 235.003L262.989 235Z" fill="black"/>
<path d="M299.531 235C299.44 235 299.353 234.958 299.296 234.876L278.799 204.746C278.762 204.695 278.745 204.63 278.751 204.568L282.147 153.569C282.158 153.414 282.294 153.298 282.447 153.306C282.602 153.317 282.721 153.45 282.71 153.606L279.319 204.505L299.76 234.556C299.848 234.686 299.814 234.861 299.686 234.949C299.638 234.983 299.582 234.997 299.528 234.997L299.531 235Z" fill="black"/>
<path d="M228.246 109.254C228.246 109.254 271.087 100.998 281.914 103.27C292.74 105.543 294.926 120.604 292.277 134.504L288.001 139.163C288.001 139.163 284.948 153.105 283.836 156.488C282.23 161.37 248.441 161.645 245.967 159.581C243.495 157.518 248.876 126.995 248.876 126.995C248.876 126.995 219.616 130.502 198.805 121.425C192.161 118.526 195.483 106.573 195.483 106.573L228.243 109.254H228.246Z" fill="#42A3D6"/>
<path d="M278.178 122.24C278.161 122.24 278.147 122.24 278.13 122.237C277.978 122.211 277.873 122.064 277.898 121.909L279.171 114.538C279.196 114.385 279.343 114.281 279.499 114.306C279.651 114.332 279.756 114.479 279.731 114.634L278.458 122.005C278.436 122.143 278.314 122.24 278.181 122.24H278.178Z" fill="black"/>
<path d="M263.569 163.914C267.754 159.338 267.443 152.233 262.876 148.044C262.537 147.733 262.178 147.453 261.81 147.192C264.027 143.111 265.585 138.778 266.479 134.34C266.928 134.373 267.381 134.39 267.841 134.371C274.028 134.096 278.827 128.849 278.555 122.65C278.284 116.451 273.05 111.651 266.863 111.928C266.402 111.948 265.953 112.005 265.509 112.078C264.231 107.739 262.302 103.562 259.738 99.6925C260.08 99.3982 260.411 99.0897 260.724 98.7472C264.909 94.1704 264.598 87.0661 260.032 82.8771C255.465 78.6881 248.371 79.0051 244.189 83.5819C243.878 83.9244 243.598 84.281 243.335 84.6489C239.26 82.4299 234.937 80.876 230.509 79.9816C230.543 79.5316 230.56 79.0787 230.54 78.6145C230.269 72.4159 225.035 67.6156 218.848 67.8901C212.661 68.1647 207.863 73.4122 208.134 79.6108C208.154 80.0722 208.211 80.5222 208.284 80.9694C203.949 82.2516 199.779 84.1848 195.913 86.7576C195.619 86.4151 195.311 86.084 194.972 85.7698C190.405 81.5808 183.311 81.8978 179.129 86.4746C174.944 91.0513 175.255 98.1556 179.822 102.345C180.161 102.656 180.52 102.936 180.885 103.197C178.668 107.278 177.113 111.611 176.216 116.049C175.767 116.015 175.314 115.998 174.854 116.018C168.667 116.293 163.868 121.54 164.14 127.739C164.411 133.938 169.645 138.738 175.832 138.463C176.293 138.444 176.742 138.387 177.186 138.313C178.464 142.652 180.393 146.83 182.957 150.699C182.615 150.994 182.284 151.302 181.971 151.645C177.786 156.221 178.097 163.326 182.663 167.515C187.23 171.701 194.324 171.387 198.506 166.81C198.817 166.467 199.097 166.111 199.36 165.743C203.435 167.962 207.758 169.516 212.186 170.41C212.152 170.86 212.135 171.313 212.155 171.774C212.426 177.973 217.66 182.773 223.847 182.499C230.034 182.224 234.832 176.977 234.561 170.778C234.541 170.317 234.484 169.867 234.411 169.42C238.743 168.137 242.916 166.204 246.782 163.631C247.076 163.974 247.384 164.305 247.723 164.619C252.29 168.808 259.384 168.491 263.566 163.914H263.569ZM236.701 139.276C228.931 147.775 215.757 148.361 207.277 140.586C198.798 132.808 198.221 119.616 205.991 111.113C213.761 102.614 226.935 102.028 235.415 109.803C243.895 117.581 244.471 130.773 236.701 139.276Z" fill="white"/>
<path d="M223.344 182.793C220.465 182.793 217.734 181.732 215.596 179.773C213.331 177.696 212.011 174.86 211.878 171.789C211.861 171.432 211.867 171.053 211.892 170.639C207.546 169.739 203.364 168.217 199.448 166.111C199.199 166.448 198.961 166.739 198.721 167.002C196.646 169.272 193.815 170.597 190.747 170.733C187.677 170.872 184.742 169.802 182.477 167.724C177.803 163.439 177.483 156.139 181.767 151.455C182.007 151.192 182.279 150.929 182.59 150.651C180.152 146.929 178.269 142.89 176.991 138.633C176.578 138.696 176.202 138.732 175.849 138.749C172.784 138.882 169.843 137.818 167.581 135.741C165.316 133.663 163.996 130.827 163.863 127.756C163.586 121.413 168.514 116.021 174.845 115.741C175.198 115.724 175.577 115.73 175.993 115.755C176.895 111.402 178.419 107.207 180.523 103.287C180.189 103.038 179.895 102.8 179.635 102.56C174.961 98.2745 174.641 90.9749 178.925 86.2906C181.001 84.0206 183.831 82.696 186.899 82.5601C189.97 82.4243 192.905 83.4913 195.17 85.5688C195.435 85.8123 195.693 86.0755 195.973 86.3925C199.688 83.947 203.723 82.0592 207.976 80.777C207.914 80.3637 207.877 79.9873 207.86 79.6335C207.583 73.2906 212.511 67.8986 218.842 67.6184C221.907 67.4797 224.848 68.5496 227.11 70.6271C229.375 72.7047 230.695 75.5379 230.828 78.6117C230.842 78.9683 230.84 79.3476 230.814 79.7609C235.16 80.6609 239.342 82.1837 243.258 84.2895C243.507 83.9527 243.745 83.6612 243.985 83.3979C246.06 81.1279 248.891 79.8033 251.959 79.6675C255.024 79.5288 257.965 80.5987 260.227 82.6762C264.901 86.9614 265.22 94.261 260.936 98.9453C260.696 99.2086 260.425 99.4746 260.114 99.7492C260.88 100.918 261.598 102.132 262.254 103.364C262.328 103.502 262.277 103.672 262.138 103.746C262 103.819 261.83 103.766 261.756 103.63C261.072 102.342 260.314 101.071 259.508 99.8539C259.429 99.735 259.452 99.5765 259.559 99.4831C259.933 99.1633 260.249 98.8604 260.521 98.5632C264.592 94.1082 264.29 87.168 259.845 83.0922C257.693 81.1166 254.9 80.1005 251.984 80.2307C249.066 80.3609 246.374 81.6204 244.401 83.7772C244.126 84.0772 243.861 84.4084 243.569 84.8188C243.487 84.9348 243.329 84.9716 243.205 84.9037C239.204 82.7243 234.914 81.1647 230.458 80.2675C230.317 80.2392 230.22 80.1118 230.232 79.9675C230.268 79.475 230.28 79.0391 230.263 78.6372C230.136 75.7162 228.88 73.0188 226.725 71.046C224.574 69.0704 221.78 68.0543 218.865 68.1845C212.842 68.4534 208.157 73.5764 208.423 79.6108C208.44 80.0128 208.488 80.4458 208.57 80.9355C208.592 81.077 208.507 81.2129 208.372 81.2525C204.009 82.5431 199.872 84.4791 196.077 87.0039C195.959 87.0831 195.8 87.0605 195.707 86.9529C195.379 86.5708 195.088 86.2651 194.788 85.9906C192.636 84.015 189.845 82.996 186.927 83.129C184.009 83.2592 181.317 84.5188 179.344 86.6755C175.272 91.1306 175.575 98.0707 180.02 102.147C180.316 102.418 180.656 102.69 181.057 102.979C181.173 103.061 181.21 103.219 181.142 103.344C178.965 107.352 177.404 111.648 176.502 116.117C176.474 116.256 176.346 116.352 176.202 116.344C175.71 116.307 175.275 116.296 174.873 116.316C168.851 116.584 164.165 121.707 164.428 127.742C164.555 130.663 165.811 133.36 167.966 135.336C170.117 137.311 172.908 138.325 175.826 138.197C176.228 138.18 176.66 138.132 177.147 138.05C177.285 138.028 177.424 138.112 177.463 138.248C178.75 142.616 180.678 146.759 183.198 150.558C183.277 150.677 183.254 150.835 183.147 150.929C182.771 151.251 182.457 151.551 182.185 151.848C178.114 156.303 178.416 163.244 182.861 167.319C185.013 169.292 187.798 170.311 190.722 170.178C193.64 170.048 196.332 168.788 198.305 166.632C198.577 166.334 198.848 165.995 199.137 165.59C199.219 165.474 199.377 165.437 199.502 165.505C203.503 167.685 207.792 169.244 212.248 170.144C212.39 170.172 212.486 170.3 212.474 170.444C212.438 170.934 212.426 171.37 212.443 171.774C212.571 174.695 213.826 177.393 215.981 179.368C218.132 181.341 220.92 182.36 223.841 182.227C229.864 181.958 234.549 176.835 234.284 170.801C234.267 170.399 234.219 169.966 234.137 169.476C234.114 169.335 234.199 169.199 234.335 169.159C238.697 167.869 242.834 165.933 246.629 163.408C246.748 163.329 246.906 163.351 246.999 163.459C247.322 163.835 247.621 164.149 247.918 164.421C250.07 166.394 252.864 167.413 255.779 167.28C258.697 167.15 261.389 165.89 263.362 163.733C264.132 162.893 264.759 161.947 265.231 160.92C265.297 160.778 265.463 160.716 265.608 160.781C265.749 160.846 265.811 161.016 265.746 161.158C265.251 162.236 264.59 163.229 263.781 164.115C261.706 166.385 258.875 167.71 255.807 167.846C252.739 167.982 249.801 166.915 247.539 164.837C247.276 164.597 247.013 164.328 246.736 164.014C243.021 166.456 238.986 168.347 234.733 169.629C234.795 170.042 234.832 170.419 234.849 170.773C235.126 177.115 230.198 182.507 223.867 182.788C223.691 182.796 223.519 182.799 223.344 182.799V182.793ZM221.314 146.34C216.029 146.34 211.013 144.39 207.091 140.796C198.509 132.927 197.924 119.525 205.787 110.924C209.596 106.757 214.796 104.323 220.428 104.074C226.061 103.822 231.453 105.784 235.61 109.596C244.191 117.465 244.777 130.867 236.913 139.468C233.105 143.635 227.905 146.069 222.272 146.318C221.953 146.332 221.63 146.34 221.314 146.34ZM221.387 104.62C221.076 104.62 220.765 104.626 220.454 104.64C214.971 104.884 209.91 107.253 206.203 111.306C198.551 119.678 199.12 132.718 207.472 140.377C211.519 144.087 216.761 145.992 222.247 145.752C227.729 145.508 232.791 143.139 236.498 139.086C244.149 130.714 243.581 117.674 235.228 110.015C231.414 106.517 226.528 104.62 221.387 104.62Z" fill="black"/>
<path d="M178.673 105.852C178.673 105.852 177.616 104.969 178.382 103.734C179.143 102.512 183.8 103.534 184.221 105.136C184.642 106.738 182.476 107.125 182.106 107.015C182.106 107.015 183.466 108 183.675 109.492C183.887 110.983 182.21 110.992 181.682 111.045C181.682 111.045 182.844 111.852 182.069 113.409C181.718 114.108 180.042 114.179 180.042 114.179C180.042 114.179 180.98 115.71 179.553 116.208C178.125 116.706 175.523 115.88 174.732 114.388C173.94 112.897 175.781 112.936 175.919 112.78C175.919 112.78 174.231 111.269 174.389 110.055C174.548 108.841 176.544 109.002 176.544 109.002C176.544 109.002 174.864 108.068 175.393 106.74C175.922 105.416 178.67 105.857 178.67 105.857L178.673 105.852Z" fill="white"/>
<path d="M178.608 116.627C177.092 116.627 175.178 115.82 174.482 114.515C174.236 114.054 174.188 113.652 174.335 113.327C174.533 112.896 175.008 112.727 175.376 112.633C174.858 112.087 173.979 110.992 174.106 110.009C174.222 109.121 175.07 108.829 175.738 108.739C175.22 108.238 174.785 107.485 175.127 106.627C175.557 105.549 177.126 105.458 178.039 105.503C177.782 105.022 177.666 104.334 178.135 103.582C178.656 102.744 180.236 102.885 180.892 102.981C182.419 103.211 184.198 103.958 184.486 105.056C184.645 105.659 184.506 106.194 184.082 106.607C183.728 106.95 183.225 107.156 182.79 107.25C183.231 107.705 183.81 108.47 183.949 109.446C184.014 109.913 183.926 110.304 183.683 110.609C183.333 111.048 182.747 111.201 182.275 111.266C182.603 111.759 182.809 112.54 182.315 113.53C182.012 114.133 181.039 114.346 180.463 114.419C180.587 114.742 180.697 115.214 180.542 115.65C180.406 116.032 180.101 116.307 179.637 116.471C179.332 116.579 178.978 116.627 178.596 116.627H178.608ZM176.312 109.271C175.845 109.271 174.765 109.35 174.669 110.086C174.556 110.96 175.67 112.172 176.108 112.565C176.165 112.616 176.199 112.684 176.201 112.761C176.204 112.837 176.179 112.911 176.131 112.964C176.04 113.066 175.913 113.095 175.701 113.143C175.427 113.205 174.969 113.31 174.85 113.567C174.759 113.762 174.872 114.048 174.98 114.252C175.715 115.636 178.167 116.386 179.459 115.936C179.759 115.832 179.939 115.676 180.016 115.461C180.188 114.98 179.804 114.329 179.798 114.323C179.744 114.238 179.742 114.13 179.79 114.043C179.838 113.955 179.928 113.898 180.027 113.893C180.519 113.87 181.605 113.695 181.811 113.279C182.47 111.96 181.557 111.303 181.517 111.275C181.421 111.207 181.376 111.085 181.404 110.972C181.432 110.856 181.531 110.774 181.65 110.759C181.693 110.754 181.746 110.751 181.803 110.745C182.196 110.714 182.928 110.652 183.245 110.256C183.389 110.074 183.437 109.837 183.392 109.525C183.2 108.175 181.947 107.247 181.936 107.238C181.825 107.156 181.789 107.006 181.848 106.885C181.91 106.76 182.052 106.701 182.182 106.74C182.351 106.783 183.236 106.664 183.709 106.186C183.969 105.922 184.045 105.6 183.941 105.206C183.757 104.51 182.383 103.782 180.808 103.545C179.722 103.381 178.84 103.519 178.613 103.884C177.983 104.898 178.808 105.605 178.845 105.636C178.944 105.718 178.975 105.854 178.922 105.97C178.868 106.086 178.743 106.154 178.619 106.132C177.915 106.019 176.012 105.928 175.65 106.842C175.217 107.923 176.662 108.741 176.676 108.75C176.792 108.815 176.849 108.951 176.809 109.078C176.77 109.206 176.657 109.288 176.515 109.279C176.512 109.279 176.43 109.273 176.303 109.273L176.312 109.271Z" fill="black"/>
<path d="M182.106 107.295C182.075 107.295 182.044 107.289 182.013 107.278L179.321 106.327C179.174 106.276 179.098 106.115 179.149 105.965C179.199 105.818 179.361 105.741 179.51 105.792L182.202 106.743C182.349 106.794 182.426 106.955 182.375 107.105C182.332 107.221 182.225 107.295 182.109 107.295H182.106Z" fill="black"/>
<path d="M181.682 111.325C181.645 111.325 181.609 111.32 181.575 111.303L177.627 109.678C177.483 109.619 177.415 109.454 177.475 109.307C177.534 109.163 177.701 109.095 177.845 109.154L181.792 110.779C181.937 110.838 182.004 111.003 181.945 111.15C181.9 111.26 181.795 111.325 181.685 111.325H181.682Z" fill="black"/>
<path d="M180.042 114.459C180.014 114.459 179.983 114.453 179.955 114.444L176.949 113.465C176.799 113.417 176.72 113.256 176.768 113.108C176.816 112.961 176.977 112.879 177.124 112.927L180.13 113.907C180.28 113.955 180.359 114.116 180.311 114.263C180.271 114.382 180.161 114.459 180.042 114.459Z" fill="black"/>
<path d="M251.4 121.741C251.4 121.741 249.986 121.243 248.906 120.991C247.826 120.742 245.25 116.998 244.585 115.916C243.921 114.835 242.674 115.166 242.592 116.5C242.51 117.83 243.256 120.493 243.256 120.493C243.256 120.493 240.098 118.996 239.267 119.494C238.435 119.992 238.602 121.49 240.016 122.407C240.016 122.407 237.946 121.826 237.689 123.239C237.448 124.552 239.366 125.984 239.366 125.984C239.366 125.984 238.517 126.236 238.435 127.148C238.328 128.336 240.013 129.395 240.013 129.395C240.013 129.395 239.1 130.06 239.597 131.141C240.095 132.222 243.254 135.05 248.906 136.216C254.558 137.382 251.4 121.741 251.4 121.741Z" fill="white"/>
<path d="M249.486 136.561C249.282 136.561 249.073 136.539 248.85 136.493C243.31 135.353 239.923 132.522 239.343 131.26C238.979 130.467 239.253 129.813 239.572 129.429C239.058 129.041 238.062 128.146 238.156 127.122C238.212 126.496 238.563 126.131 238.857 125.927C238.283 125.418 237.208 124.294 237.412 123.187C237.486 122.783 237.686 122.477 238.011 122.273C238.339 122.067 238.747 122.007 239.114 122.007H239.123C238.707 121.529 238.475 120.971 238.484 120.434C238.492 119.921 238.727 119.491 239.123 119.253C239.861 118.809 241.815 119.55 242.832 119.992C242.615 119.12 242.247 117.473 242.309 116.482C242.357 115.727 242.748 115.169 243.327 115.022C243.884 114.883 244.458 115.169 244.826 115.769C245.824 117.391 248.126 120.521 248.971 120.717C250.054 120.966 251.437 121.452 251.496 121.475C251.59 121.509 251.66 121.588 251.68 121.687C251.773 122.152 253.942 133.083 251.129 135.888C250.676 136.338 250.128 136.564 249.486 136.564V136.561ZM239.114 122.573C238.826 122.573 238.529 122.619 238.311 122.754C238.125 122.87 238.011 123.046 237.969 123.289C237.799 124.221 239.044 125.387 239.538 125.758C239.623 125.823 239.666 125.927 239.649 126.035C239.629 126.14 239.553 126.225 239.451 126.256C239.425 126.264 238.786 126.471 238.721 127.176C238.645 128.008 239.739 128.888 240.169 129.157C240.248 129.208 240.299 129.293 240.302 129.386C240.305 129.479 240.262 129.57 240.186 129.624C240.112 129.678 239.476 130.187 239.861 131.025C240.274 131.922 243.2 134.753 248.968 135.941C249.698 136.091 250.275 135.941 250.733 135.486C253.159 133.066 251.417 123.321 251.16 121.956C250.767 121.823 249.698 121.464 248.85 121.268C247.447 120.946 244.379 116.114 244.351 116.066C244.116 115.684 243.777 115.494 243.469 115.571C243.135 115.653 242.909 116.015 242.878 116.516C242.799 117.784 243.525 120.388 243.534 120.414C243.565 120.521 243.528 120.634 243.443 120.705C243.358 120.776 243.24 120.793 243.141 120.745C241.885 120.15 239.9 119.443 239.417 119.734C239.188 119.873 239.058 120.122 239.052 120.439C239.044 120.918 239.335 121.622 240.172 122.166C240.288 122.242 240.333 122.392 240.276 122.52C240.22 122.647 240.078 122.715 239.943 122.675C239.784 122.63 239.456 122.568 239.117 122.568L239.114 122.573Z" fill="black"/>
<path d="M250.848 120.813L247.891 136.924L282.718 142.061C287.429 142.604 291.698 139.25 292.292 134.54C292.894 129.768 289.501 125.421 284.731 124.852L250.848 120.813Z" fill="#42A3D6"/>
<path d="M284.733 125.135C284.733 125.135 284.71 125.135 284.699 125.135L278.399 124.385C278.243 124.365 278.133 124.226 278.15 124.071C278.17 123.915 278.308 123.802 278.464 123.822L284.764 124.572C284.919 124.591 285.03 124.73 285.013 124.886C284.996 125.03 284.874 125.135 284.733 125.135Z" fill="black"/>
<path d="M283.705 142.401C283.363 142.401 283.024 142.381 282.684 142.341L265.037 139.737C264.882 139.714 264.777 139.57 264.8 139.417C264.823 139.262 264.964 139.154 265.119 139.18L282.755 141.781C284.087 141.934 285.399 141.772 286.649 141.299C286.796 141.243 286.957 141.319 287.013 141.464C287.07 141.611 286.994 141.772 286.849 141.829C285.848 142.205 284.777 142.401 283.702 142.401H283.705Z" fill="black"/>
<path d="M280.176 95.5376L281.912 103.27L272.508 110.666L274.747 103.214L274.374 97.0377L280.176 95.5376Z" fill="white"/>
<path d="M281.912 103.553C281.781 103.553 281.666 103.462 281.637 103.332L279.966 95.8855L274.67 97.2526L275.029 103.196C275.038 103.352 274.919 103.488 274.763 103.496C274.614 103.508 274.472 103.386 274.464 103.23L274.09 97.0516C274.082 96.9157 274.17 96.794 274.302 96.7601L280.108 95.2599C280.181 95.2401 280.26 95.2515 280.325 95.2939C280.39 95.3335 280.436 95.3986 280.452 95.4722L282.189 103.205C282.223 103.358 282.126 103.508 281.974 103.542C281.954 103.547 281.931 103.547 281.912 103.547V103.553Z" fill="black"/>
<path d="M283.021 94.7083C283.021 94.7083 286.066 93.9073 287.166 90.958C288.266 88.0088 284.271 88.5097 284.271 88.5097C284.271 88.5097 285.868 85.2095 284.07 83.7603C282.272 82.3112 280.824 84.2104 280.824 84.2104C280.824 84.2104 280.725 81.012 278.027 79.56C275.33 78.1108 272.434 81.3092 271.484 83.8594C270.534 86.4096 271.434 89.4098 273.681 90.859C275.929 92.3082 276.577 95.7584 278.627 96.0584C280.674 96.3585 283.021 94.7083 283.021 94.7083Z" fill="black"/>
<path d="M279.924 94.1563C280.023 94.0063 281.072 92.8572 282.72 93.5053C284.369 94.1563 282.87 98.0057 280.274 97.1537C280.274 97.1537 279.876 99.1039 278.425 99.5539C276.977 100.004 272.532 100.304 271.534 98.4048C270.536 96.5056 272.592 91.7986 273.262 89.9786C273.932 88.1587 274.981 88.1587 274.981 88.1587C274.981 88.1587 276.429 90.2079 278.626 90.2589C278.626 90.2589 277.976 92.209 278.176 93.4572C278.377 94.7082 279.924 94.1563 279.924 94.1563Z" fill="white"/>
<path d="M275.657 100.168C273.901 100.168 271.95 99.8029 271.286 98.5405C270.347 96.7574 271.823 92.9363 272.702 90.655C272.815 90.3635 272.914 90.1031 272.996 89.8852C273.726 87.9011 274.93 87.8784 274.981 87.8784C275.072 87.8784 275.159 87.9237 275.213 87.9973C275.227 88.0171 276.61 89.9305 278.634 89.9786C278.725 89.9786 278.807 90.0239 278.858 90.0975C278.909 90.171 278.923 90.2644 278.895 90.3494C278.889 90.3692 278.27 92.2486 278.456 93.4147C278.493 93.644 278.584 93.7996 278.736 93.8902C279.033 94.0685 279.517 93.9836 279.754 93.9157C280.091 93.5137 281.222 92.6137 282.825 93.2449C283.625 93.559 283.911 94.5327 283.523 95.6139C283.088 96.8253 281.92 97.8131 280.475 97.5046C280.294 98.1018 279.76 99.4406 278.51 99.8284C277.962 99.9982 276.853 100.168 275.657 100.168ZM274.86 88.4643C274.6 88.5351 273.986 88.8351 273.528 90.0776C273.446 90.2984 273.344 90.5616 273.231 90.856C272.439 92.9052 270.966 96.7178 271.786 98.2745C272.691 99.9954 277.011 99.701 278.343 99.2849C279.618 98.8887 279.995 97.1169 279.997 97.0999C280.014 97.0206 280.062 96.9527 280.133 96.9131C280.204 96.8734 280.286 96.8649 280.362 96.8876C281.654 97.3093 282.63 96.4234 282.992 95.4186C283.226 94.7648 283.204 94.0006 282.619 93.7685C281.083 93.1628 280.167 94.3006 280.159 94.3119C280.125 94.36 280.074 94.4025 280.017 94.4223C279.921 94.4563 279.067 94.7421 278.448 94.3742C278.241 94.2497 277.976 93.9977 277.896 93.4996C277.738 92.509 278.072 91.1447 278.25 90.5135C276.457 90.3041 275.219 88.9172 274.857 88.4615L274.86 88.4643Z" fill="black"/>
<path d="M280.875 95.6394C280.83 95.6394 280.782 95.6281 280.74 95.6054C280.604 95.529 280.553 95.3592 280.629 95.2233C280.861 94.7988 281.52 94.0912 282.337 94.4506C282.481 94.5129 282.546 94.6799 282.484 94.8243C282.422 94.9686 282.255 95.0337 282.111 94.9714C281.56 94.7309 281.141 95.4668 281.124 95.4979C281.073 95.5913 280.977 95.6422 280.875 95.6422V95.6394Z" fill="black"/>
<path d="M351.716 177.3H289.826C289.67 177.3 289.543 177.172 289.543 177.017C289.543 176.861 289.67 176.733 289.826 176.733H351.433V18.5563H303.113C302.957 18.5563 302.83 18.4289 302.83 18.2733C302.83 18.1176 302.957 17.9902 303.113 17.9902H351.716C351.871 17.9902 351.999 18.1176 351.999 18.2733V177.017C351.999 177.172 351.871 177.3 351.716 177.3Z" fill="black"/>
<path d="M296.492 21.6896C294.631 21.6896 293.121 20.1753 293.121 18.3157C293.121 16.4562 294.634 14.9419 296.492 14.9419C298.349 14.9419 299.862 16.4562 299.862 18.3157C299.862 20.1753 298.349 21.6896 296.492 21.6896ZM296.492 15.5051C294.945 15.5051 293.687 16.7647 293.687 18.3129C293.687 19.8611 294.945 21.1207 296.492 21.1207C298.038 21.1207 299.297 19.8611 299.297 18.3129C299.297 16.7647 298.038 15.5051 296.492 15.5051Z" fill="black"/>
<path d="M286.936 19.3619C287.516 17.7568 286.687 15.9847 285.083 15.4036C283.48 14.8226 281.71 15.6527 281.129 17.2578C280.549 18.8629 281.378 20.6351 282.981 21.2161C284.585 21.7971 286.355 20.967 286.936 19.3619Z" fill="#E2EAFF"/>
<path d="M274.591 19.0227C274.982 17.3613 273.955 15.6966 272.295 15.3045C270.635 14.9124 268.972 15.9413 268.58 17.6027C268.189 19.264 269.217 20.9287 270.876 21.3208C272.536 21.7129 274.199 20.684 274.591 19.0227Z" fill="#E2EAFF"/>
<path d="M165.206 194.998C163.346 194.998 161.836 193.483 161.836 191.624C161.836 189.764 163.349 188.25 165.206 188.25C167.064 188.25 168.577 189.764 168.577 191.624C168.577 193.483 167.064 194.998 165.206 194.998ZM165.206 188.813C163.66 188.813 162.401 190.073 162.401 191.621C162.401 193.169 163.66 194.429 165.206 194.429C166.753 194.429 168.011 193.169 168.011 191.621C168.011 190.073 166.753 188.813 165.206 188.813Z" fill="black"/>
<path d="M178.837 194.479C180.413 193.826 181.161 192.018 180.508 190.441C179.855 188.864 178.049 188.115 176.474 188.768C174.898 189.422 174.15 191.23 174.803 192.807C175.455 194.384 177.262 195.133 178.837 194.479Z" fill="#E2EAFF"/>
<path d="M191.286 194.479C192.862 193.826 193.61 192.018 192.957 190.441C192.305 188.864 190.498 188.115 188.923 188.768C187.347 189.422 186.599 191.23 187.252 192.807C187.905 194.384 189.711 195.133 191.286 194.479Z" fill="#E2EAFF"/>
<path d="M155.883 192.34H76.6148C76.4593 192.34 76.332 192.213 76.332 192.057C76.332 191.901 76.4593 191.774 76.6148 191.774H155.883C156.039 191.774 156.166 191.901 156.166 192.057C156.166 192.213 156.039 192.34 155.883 192.34Z" fill="black"/>
</svg>
