<svg width="517" height="353" viewBox="0 0 517 353" fill="none" xmlns="http://www.w3.org/2000/svg">
<path d="M241.972 205.772H179.51C179.141 205.772 178.771 205.676 178.466 205.467C177.751 204.978 177.502 204.1 177.787 203.346C178.522 201.803 180.048 201.262 182.297 201.262H246.071L245.244 203.507C244.734 204.87 243.429 205.772 241.972 205.772Z" fill="black"/>
<path d="M242.327 205.771C243.576 205.771 244.7 205.009 245.162 203.851L256.22 176.144C256.513 175.411 256.42 174.577 255.979 173.923C255.533 173.27 254.794 172.877 253.999 172.877H215.609C213.296 172.877 211.232 174.332 210.462 176.509L200.082 205.775H242.327V205.771Z" fill="black"/>
<path d="M243.224 201.935H205.163C204.942 201.935 204.762 201.754 204.762 201.534C204.762 201.313 204.942 201.133 205.163 201.133H243.224C243.445 201.133 243.626 201.313 243.626 201.534C243.626 201.754 243.445 201.935 243.224 201.935Z" fill="white"/>
<path d="M234.428 195.382H219.463C219.331 195.382 219.21 195.318 219.134 195.21C219.058 195.101 219.042 194.965 219.09 194.841L224.679 179.899C224.739 179.743 224.888 179.639 225.057 179.639H239.166C239.387 179.639 239.568 179.819 239.568 180.04C239.568 180.26 239.387 180.44 239.166 180.44H225.338L220.045 194.58H234.155L237.853 184.702C237.93 184.494 238.162 184.389 238.371 184.466C238.58 184.542 238.684 184.774 238.608 184.983L234.814 195.121C234.753 195.278 234.605 195.382 234.436 195.382H234.428Z" fill="white"/>
<path d="M227.905 192.817C227.873 192.817 227.837 192.817 227.805 192.805C227.672 192.772 227.568 192.672 227.524 192.544L224.725 184.35C224.653 184.141 224.765 183.913 224.974 183.84C225.183 183.768 225.412 183.88 225.484 184.089L228.082 191.702L243.167 177.899C243.332 177.751 243.585 177.763 243.733 177.923C243.882 178.087 243.874 178.34 243.709 178.488L228.17 192.704C228.094 192.772 227.997 192.809 227.897 192.809L227.905 192.817Z" fill="white"/>
<path d="M68.4402 272.764C96.619 272.764 119.462 249.956 119.462 221.821C119.462 193.687 96.619 170.879 68.4402 170.879C40.2614 170.879 17.418 193.687 17.418 221.821C17.418 249.956 40.2614 272.764 68.4402 272.764Z" fill="white"/>
<path d="M68.4394 273.165C40.0834 273.165 17.0156 250.134 17.0156 221.822C17.0156 193.51 40.0834 170.479 68.4394 170.479C96.7953 170.479 119.863 193.51 119.863 221.822C119.863 250.134 96.7953 273.165 68.4394 273.165ZM68.4394 171.276C40.5251 171.276 17.8187 193.951 17.8187 221.818C17.8187 249.685 40.5291 272.359 68.4394 272.359C96.3496 272.359 119.06 249.685 119.06 221.818C119.06 193.951 96.3496 171.276 68.4394 171.276Z" fill="black"/>
<path d="M71.0334 254.311C71.0334 254.311 71.0133 254.311 71.0053 254.311C47.1826 252.587 41.5773 240.668 41.3484 240.163C41.2561 239.962 41.3484 239.726 41.5492 239.634C41.75 239.541 41.9869 239.634 42.0792 239.834C42.1314 239.954 47.7608 251.825 71.0615 253.513C71.2824 253.529 71.447 253.721 71.435 253.942C71.4189 254.154 71.2422 254.315 71.0334 254.315V254.311Z" fill="black"/>
<path d="M21.5125 324.594C21.4844 324.594 21.4523 324.594 21.4242 324.586C21.2074 324.537 21.0709 324.321 21.119 324.105L35.3572 260.846C35.4054 260.63 35.6223 260.498 35.8351 260.542C36.0519 260.59 36.1884 260.806 36.1402 261.023L21.902 324.281C21.8619 324.465 21.6932 324.594 21.5125 324.594Z" fill="black"/>
<path d="M20.67 332.825C22.6968 332.825 24.3399 331.184 24.3399 329.16C24.3399 327.137 22.6968 325.496 20.67 325.496C18.6431 325.496 17 327.137 17 329.16C17 331.184 18.6431 332.825 20.67 332.825Z" fill="black"/>
<path d="M274.844 324.757C274.667 324.757 274.506 324.641 274.458 324.464L242.75 211.502C242.689 211.29 242.814 211.069 243.027 211.009C243.239 210.949 243.46 211.073 243.521 211.286L275.229 324.248C275.289 324.46 275.165 324.681 274.952 324.741C274.916 324.753 274.88 324.757 274.844 324.757Z" fill="black"/>
<path d="M276.588 332.766C278.615 332.766 280.258 331.125 280.258 329.102C280.258 327.078 278.615 325.438 276.588 325.438C274.561 325.438 272.918 327.078 272.918 329.102C272.918 331.125 274.561 332.766 276.588 332.766Z" fill="black"/>
<path d="M253.42 205.912H146.176V210.919H253.42V205.912Z" fill="white"/>
<path d="M253.423 211.319H146.179C145.958 211.319 145.777 211.138 145.777 210.918V205.911C145.777 205.69 145.958 205.51 146.179 205.51H253.423C253.644 205.51 253.825 205.69 253.825 205.911V210.918C253.825 211.138 253.644 211.319 253.423 211.319ZM146.58 210.517H253.022V206.312H146.58V210.517Z" fill="black"/>
<path d="M94.43 172.22C96.3855 175.972 99.9069 178.59 103.649 180.402C105.669 181.38 107.789 182.162 109.937 182.811C112.274 183.517 114.687 184.042 117.136 184.05C121.365 184.066 125.428 182.439 128.668 179.756C133.463 175.78 135.88 169.974 136.301 163.953C143.208 161.892 149.074 156.56 151.812 149.909C152.519 148.19 153.017 146.377 153.262 144.533C153.394 143.531 153.374 142.525 153.479 141.523C153.607 140.276 154.278 139.462 155.149 138.616C157.627 136.199 159.249 133.184 159.911 129.784C161.196 123.237 158.907 115.769 153.37 111.78C147.861 107.807 140.136 108.051 134.354 111.323C131.443 112.97 128.978 115.392 127.5 118.411C127.054 119.321 126.757 120.307 126.235 121.181C125.657 122.147 124.798 122.748 123.722 123.069C122.665 123.382 121.553 123.45 120.469 123.61C119.522 123.755 118.586 123.979 117.674 124.28C110.455 126.641 104.91 133.749 104.721 141.378C104.665 143.651 105.01 145.944 104.649 148.202C104.336 150.162 103.336 151.81 101.951 153.209C99.3809 155.803 95.9317 157.599 94.1048 160.874C92.1533 164.374 92.6271 168.76 94.43 172.22Z" fill="black"/>
<path d="M123.25 143.689L131.425 133.27C131.999 132.536 136.38 131.005 137.062 131.638L141.19 139.949C141.776 140.49 141.869 141.38 141.411 142.034L135.4 150.597C134.376 152.056 132.633 152.834 130.867 152.613C128.618 152.337 125.583 151.226 123.117 147.682C122.274 146.472 122.338 144.848 123.25 143.689Z" fill="white"/>
<path d="M122.297 145.154C122.209 145.154 122.121 145.126 122.044 145.066C121.872 144.926 121.844 144.673 121.984 144.501L131.878 132.241C132.018 132.069 132.271 132.041 132.444 132.181C132.617 132.322 132.645 132.574 132.504 132.747L122.611 145.006C122.53 145.106 122.414 145.154 122.297 145.154Z" fill="black"/>
<path d="M134.575 152.058C134.495 152.058 134.411 152.034 134.338 151.981C134.158 151.853 134.118 151.601 134.25 151.42L141.955 140.828C142.084 140.648 142.337 140.608 142.518 140.74C142.698 140.868 142.738 141.121 142.606 141.301L134.901 151.893C134.82 152.001 134.7 152.058 134.575 152.058Z" fill="black"/>
<path d="M136.457 128.195C136.457 128.195 136.08 126.459 134.365 126.387C132.679 126.315 131.149 127.818 130.916 129.486C130.683 131.154 131.687 132.886 133.201 133.627C134.056 134.044 134.895 134.349 135.968 134.064C136.614 136.097 137.69 138.029 139.268 139.468C140.846 140.912 142.95 141.83 145.086 141.762C148.66 141.649 151.691 138.811 153.105 135.528C154.518 132.248 154.635 128.576 154.695 125.004C154.695 125.004 149.563 128.969 142.316 123.861C141.175 127.221 139.365 129.001 136.457 128.195Z" fill="white"/>
<path d="M144.868 142.165C142.805 142.165 140.676 141.299 138.998 139.764C137.565 138.453 136.428 136.653 135.701 134.532C134.621 134.705 133.758 134.348 133.027 133.991C131.321 133.157 130.269 131.241 130.522 129.433C130.795 127.488 132.558 125.897 134.388 125.989C135.818 126.049 136.537 127.136 136.786 127.865C139.155 128.419 140.797 127.104 141.937 123.736C141.977 123.616 142.074 123.524 142.194 123.483C142.315 123.447 142.447 123.463 142.552 123.536C149.454 128.402 154.252 124.842 154.453 124.69C154.573 124.598 154.742 124.582 154.878 124.65C155.015 124.718 155.103 124.863 155.099 125.015C155.043 128.222 154.975 132.215 153.477 135.691C151.827 139.515 148.542 142.057 145.101 142.165C145.025 142.165 144.949 142.165 144.868 142.165ZM135.971 133.662C136.143 133.662 136.3 133.771 136.352 133.943C137.035 136.08 138.135 137.888 139.54 139.175C141.126 140.626 143.142 141.412 145.073 141.364C148.631 141.251 151.486 138.273 152.738 135.374C154.063 132.295 154.224 128.731 154.28 125.732C152.662 126.602 148.217 128.274 142.519 124.49C141.202 127.978 139.131 129.353 136.352 128.583C136.207 128.543 136.099 128.427 136.067 128.282C136.051 128.222 135.722 126.847 134.352 126.787C132.955 126.739 131.53 128.014 131.317 129.541C131.112 131.016 131.979 132.584 133.381 133.269C134.276 133.706 134.971 133.915 135.866 133.678C135.902 133.67 135.934 133.666 135.971 133.666V133.662Z" fill="black"/>
<path d="M135.574 132.155C135.405 132.155 135.252 132.05 135.192 131.882C134.895 131.016 134.269 130.266 133.47 129.821C133.277 129.713 133.209 129.468 133.317 129.276C133.426 129.084 133.67 129.015 133.863 129.124C134.831 129.665 135.594 130.579 135.951 131.625C136.023 131.834 135.911 132.062 135.702 132.134C135.658 132.151 135.614 132.155 135.574 132.155Z" fill="black"/>
<path d="M154.498 125.55C154.349 125.55 154.209 125.47 154.136 125.325C154.036 125.129 154.12 124.888 154.317 124.788C155.277 124.315 156.104 123.597 156.71 122.719C156.835 122.535 157.087 122.491 157.268 122.615C157.449 122.739 157.497 122.992 157.373 123.172C156.69 124.163 155.758 124.972 154.678 125.506C154.622 125.534 154.562 125.546 154.502 125.546L154.498 125.55Z" fill="black"/>
<path d="M124.622 274.913L98.3503 322.047C95.7765 326.669 99.1213 332.35 104.417 332.35H179.692C181.322 332.35 182.077 330.321 180.836 329.263L159.571 311.066L181.459 272.15L124.626 274.913H124.622Z" fill="white"/>
<path d="M179.692 332.749H104.417C101.787 332.749 99.4185 331.398 98.0854 329.133C96.7523 326.868 96.7202 324.146 98.0011 321.849L124.273 274.719C124.341 274.599 124.466 274.518 124.602 274.514L181.435 271.752C181.583 271.748 181.72 271.816 181.796 271.941C181.872 272.065 181.876 272.221 181.804 272.349L160.077 310.976L181.093 328.957C181.788 329.55 182.029 330.488 181.712 331.342C181.394 332.196 180.599 332.749 179.688 332.749H179.692ZM124.863 275.304L98.6997 322.242C97.5594 324.286 97.5875 326.712 98.776 328.728C99.9645 330.745 102.073 331.951 104.413 331.951H179.688C180.383 331.951 180.8 331.494 180.961 331.065C181.117 330.636 181.101 330.019 180.571 329.566L159.302 311.369C159.158 311.245 159.122 311.036 159.214 310.868L180.744 272.586L124.859 275.304H124.863Z" fill="black"/>
<path d="M123.845 315.852C116.373 315.852 109.672 315.13 103.496 313.663C103.279 313.611 103.147 313.394 103.199 313.182C103.251 312.965 103.468 312.833 103.681 312.885C111.466 314.729 120.111 315.387 130.101 314.89C138.975 314.449 147.925 313.154 156.582 311.899C156.803 311.867 157.004 312.019 157.036 312.24C157.068 312.46 156.915 312.66 156.694 312.693C148.017 313.947 139.047 315.25 130.137 315.691C127.977 315.8 125.881 315.852 123.841 315.852H123.845Z" fill="black"/>
<path d="M162.68 268.387L192.401 324.814C194.842 329.448 199.656 332.35 204.9 332.35H259.87C261.407 332.35 262.094 330.426 260.902 329.456L237.673 310.521L220.672 275.972L162.68 268.391V268.387Z" fill="white"/>
<path d="M259.87 332.753H204.901C199.493 332.753 194.566 329.782 192.048 325.003L162.327 268.576C162.259 268.444 162.267 268.284 162.351 268.16C162.435 268.035 162.584 267.967 162.733 267.991L220.725 275.572C220.858 275.588 220.974 275.672 221.035 275.793L237.995 310.266L261.155 329.145C261.83 329.694 262.079 330.58 261.786 331.402C261.493 332.223 260.742 332.753 259.866 332.753H259.87ZM163.395 268.885L192.755 324.626C195.132 329.145 199.786 331.947 204.897 331.947H259.866C260.509 331.947 260.886 331.526 261.027 331.129C261.167 330.732 261.143 330.167 260.645 329.762L237.417 310.827C237.373 310.791 237.337 310.747 237.308 310.695L220.404 276.338L163.391 268.885H163.395Z" fill="black"/>
<path d="M205.296 315.497C199.072 315.497 192.849 315.173 186.641 314.519C186.42 314.495 186.26 314.299 186.284 314.078C186.308 313.858 186.504 313.693 186.725 313.721C203.26 315.461 219.944 314.868 236.31 311.966C236.527 311.925 236.736 312.074 236.776 312.29C236.816 312.507 236.667 312.715 236.451 312.755C226.151 314.583 215.728 315.497 205.296 315.497Z" fill="black"/>
<path d="M115.233 284.658C115.233 284.658 169.146 300.727 223.485 277.458C223.485 277.458 209.403 251.123 197.683 231.571C190.387 219.4 177.225 211.955 163.015 211.955H72.2534L66.1622 223.826C59.3643 237.076 68.0413 253.011 82.8778 254.507C101.794 256.415 118.895 257.542 132.406 257.117L115.229 284.658H115.233Z" fill="#FA8EC8"/>
<path d="M172.048 288.243C171.988 288.243 171.924 288.227 171.863 288.199C171.667 288.099 171.59 287.854 171.691 287.658C176.738 277.896 180.725 267.557 183.536 256.937C185.515 249.46 187.322 239.826 183.7 231.636C181.283 226.168 176.477 221.349 169.009 216.911C168.82 216.799 168.756 216.55 168.868 216.362C168.98 216.173 169.229 216.109 169.418 216.221C177.035 220.752 181.946 225.687 184.435 231.315C188.157 239.734 186.322 249.54 184.311 257.145C181.484 267.825 177.477 278.217 172.405 288.031C172.333 288.167 172.193 288.247 172.048 288.247V288.243Z" fill="black"/>
<path d="M132.863 257.351C132.646 257.351 132.469 257.179 132.461 256.962C132.453 256.742 132.63 256.557 132.851 256.549L144.142 256.221C144.363 256.221 144.547 256.389 144.555 256.61C144.563 256.83 144.387 257.014 144.166 257.023L132.875 257.351H132.863Z" fill="black"/>
<path d="M72.2579 211.957H118.498L125.44 198.142C125.44 198.142 134.555 207.507 146.175 205.908C157.796 204.308 170.512 194.302 181.454 194.402C181.454 194.402 184.618 195.076 186.328 197.693C188.039 200.315 190.536 199.922 190.966 198.255C191.395 196.587 188.581 191.848 188.581 191.848C188.581 191.848 190.05 193.993 192.058 197.605C193.608 200.395 195.314 197.413 195.314 197.413C195.314 197.413 197.948 195.677 197.197 191.463C197.197 191.463 198.177 190.156 197.679 188.348C197.181 186.544 192.01 176.558 177.695 178.418C168.324 179.637 159.321 181.878 154.218 183.285C151.427 184.055 148.456 182.956 146.838 180.559C145.481 178.55 143.983 175.92 143.015 173.022C140.413 165.216 137.173 146.037 126.159 146.029C117.859 146.021 110.532 148.21 91.0334 178.418C77.5661 199.281 72.2539 211.949 72.2539 211.949L72.2579 211.957Z" fill="white"/>
<path d="M72.2555 212.357C72.2033 212.357 72.1511 212.349 72.0989 212.325C71.8941 212.241 71.7977 212.004 71.8821 211.8C71.9343 211.671 77.3629 198.862 90.6937 178.204C110.18 148.008 117.68 145.631 126.108 145.631H126.157C135.685 145.639 139.516 159.302 142.049 168.338C142.547 170.11 142.973 171.637 143.394 172.896C144.201 175.314 145.47 177.819 147.169 180.337C148.69 182.594 151.481 183.624 154.111 182.899C158.785 181.612 168.06 179.266 177.645 178.024C191.762 176.192 197.344 185.621 198.066 188.247C198.516 189.874 197.878 191.133 197.621 191.554C198.255 195.495 196.079 197.347 195.617 197.692C195.404 198.033 194.609 199.199 193.529 199.199H193.521C192.83 199.195 192.224 198.726 191.71 197.8C191.582 197.568 191.453 197.339 191.329 197.119C191.421 197.596 191.441 198.021 191.357 198.353C191.14 199.195 190.461 199.805 189.59 199.949C188.309 200.161 186.964 199.396 185.992 197.912C184.487 195.607 181.756 194.886 181.407 194.801C181.371 194.801 181.331 194.801 181.295 194.801C175.509 194.801 169.04 197.716 162.78 200.538C157.299 203.008 151.63 205.562 146.233 206.303C135.918 207.726 127.466 200.57 125.558 198.802L118.857 212.132C118.756 212.329 118.516 212.409 118.319 212.313C118.122 212.213 118.042 211.972 118.142 211.776L125.085 197.96C125.141 197.844 125.253 197.764 125.382 197.744C125.51 197.724 125.639 197.768 125.731 197.86C125.819 197.952 134.85 207.061 146.125 205.509C151.409 204.784 157.022 202.254 162.451 199.805C168.847 196.922 175.448 193.931 181.459 193.996C181.487 193.996 181.511 193.996 181.539 194.004C181.676 194.032 184.884 194.741 186.667 197.467C187.599 198.895 188.723 199.271 189.462 199.151C190.024 199.059 190.445 198.682 190.582 198.145C190.863 197.046 189.297 193.819 188.241 192.043C188.133 191.859 188.189 191.618 188.369 191.502C188.554 191.386 188.795 191.434 188.916 191.614C188.932 191.634 190.417 193.815 192.413 197.403C192.662 197.852 193.059 198.385 193.529 198.389H193.533C194.155 198.389 194.782 197.536 194.971 197.207C195.003 197.151 195.047 197.107 195.099 197.07C195.195 197.006 197.5 195.411 196.81 191.526C196.79 191.418 196.818 191.306 196.882 191.217C196.914 191.169 197.733 190.031 197.299 188.451C196.657 186.118 191.168 177.074 177.757 178.813C168.221 180.052 158.99 182.385 154.336 183.668C151.373 184.482 148.233 183.324 146.514 180.782C144.776 178.204 143.471 175.634 142.643 173.149C142.218 171.87 141.784 170.33 141.286 168.55C138.817 159.743 135.087 146.437 126.169 146.429H126.125C117.949 146.429 110.65 148.778 91.3843 178.637C78.0977 199.227 72.6891 211.98 72.6369 212.108C72.5727 212.261 72.4241 212.353 72.2675 212.353L72.2555 212.357Z" fill="black"/>
<path d="M195.407 197.633C195.407 197.633 195.395 197.633 195.387 197.633C195.166 197.621 194.993 197.433 195.005 197.212C195.146 194.358 194.054 191.419 192.086 189.347C191.934 189.186 191.942 188.934 192.102 188.781C192.263 188.629 192.516 188.637 192.668 188.797C194.784 191.026 195.957 194.189 195.808 197.256C195.796 197.473 195.62 197.637 195.407 197.637V197.633Z" fill="black"/>
<path d="M197.221 192.031C197.052 192.031 196.896 191.923 196.84 191.758C196.097 189.525 194.792 187.501 193.065 185.905C192.905 185.753 192.893 185.5 193.045 185.34C193.198 185.176 193.451 185.168 193.611 185.32C195.438 187.012 196.816 189.149 197.599 191.51C197.667 191.718 197.554 191.947 197.346 192.015C197.305 192.027 197.261 192.035 197.217 192.035L197.221 192.031Z" fill="black"/>
<path d="M170.047 197.319C169.862 197.319 169.693 197.191 169.653 197.002L166.088 180.469C166.039 180.252 166.18 180.04 166.397 179.992C166.614 179.944 166.826 180.084 166.875 180.301L170.44 196.834C170.488 197.05 170.348 197.263 170.131 197.311C170.103 197.319 170.075 197.319 170.047 197.319Z" fill="black"/>
<path d="M124.298 197.852C124.185 197.852 124.073 197.804 123.993 197.712C117.014 189.558 112.272 179.68 110.276 169.144C110.236 168.927 110.377 168.715 110.598 168.675C110.814 168.635 111.027 168.775 111.067 168.996C113.035 179.395 117.717 189.145 124.603 197.191C124.747 197.359 124.727 197.612 124.559 197.756C124.482 197.82 124.39 197.852 124.298 197.852Z" fill="black"/>
<path d="M454.268 49.0583C452.421 49.0583 450.594 49.1424 448.791 49.2988C434.782 20.1373 404.936 0 370.377 0C322.374 0 283.458 38.8553 283.458 86.783C283.458 90.3671 283.679 93.895 284.1 97.3628C267.124 101.452 254.512 116.718 254.512 134.923C254.512 156.263 271.838 173.562 293.211 173.562H454.264C488.699 173.562 516.613 145.691 516.613 111.31C516.613 76.9289 488.699 49.0583 454.264 49.0583H454.268Z" fill="#E2EAFF"/>
<path d="M258.144 198.515C257.923 198.515 257.742 198.335 257.742 198.114C257.742 197.894 257.923 197.713 258.144 197.713C304.155 197.713 345.384 172.104 365.745 130.875C365.842 130.679 366.083 130.595 366.283 130.695C366.484 130.791 366.564 131.032 366.464 131.232C356.643 151.117 341.525 167.918 322.742 179.821C303.444 192.053 281.107 198.515 258.144 198.515Z" fill="#4398D7"/>
<path d="M368.493 139.175C368.317 139.175 368.156 139.059 368.108 138.882L365.96 131.365L358.427 133.51C358.214 133.566 357.993 133.446 357.929 133.234C357.869 133.021 357.993 132.797 358.206 132.737L366.124 130.483C366.229 130.455 366.337 130.467 366.43 130.52C366.522 130.572 366.59 130.656 366.622 130.76L368.879 138.666C368.939 138.878 368.815 139.103 368.602 139.163C368.566 139.175 368.53 139.179 368.493 139.179V139.175Z" fill="#4398D7"/>
<path d="M462.116 275.642C454.491 270.911 448.782 263.907 446.18 256.094C451.307 256.707 456.166 258.92 459.655 262.24L461.028 263.434L467.32 276.52H464.493L462.116 275.642Z" fill="white"/>
<path d="M462.116 276.044C462.044 276.044 461.972 276.024 461.903 275.984C454.162 271.181 448.444 264.161 445.794 256.223C445.75 256.095 445.778 255.951 445.862 255.842C445.951 255.738 446.083 255.682 446.22 255.698C451.399 256.315 456.394 258.593 459.924 261.948C460.085 262.1 460.093 262.353 459.936 262.513C459.783 262.674 459.53 262.682 459.37 262.529C456.109 259.426 451.544 257.282 446.762 256.58C449.436 264.093 454.937 270.724 462.321 275.302C462.51 275.418 462.566 275.667 462.45 275.855C462.373 275.976 462.241 276.044 462.108 276.044H462.116Z" fill="#86C062"/>
<path d="M464.491 275.663C464.351 275.663 464.214 275.587 464.138 275.455C460.857 269.537 456.168 264.069 450.574 259.643C450.402 259.507 450.369 259.254 450.51 259.078C450.646 258.905 450.899 258.873 451.072 259.014C456.75 263.504 461.508 269.056 464.84 275.066C464.949 275.258 464.877 275.503 464.684 275.611C464.624 275.647 464.555 275.659 464.491 275.659V275.663Z" fill="#86C062"/>
<path d="M450.72 175.531C456.559 187.867 460.895 200.736 463.642 213.857L464.441 217.927L463.999 222.212C463.537 227.364 463.32 233.281 463.637 239.812C463.927 245.793 464.609 251.209 465.448 255.96C467.36 262.815 471.182 276.522 471.182 276.522H467.315L466.255 274.698C458.755 258.907 451.572 242.879 447.877 226.105C444.187 209.331 444.139 191.627 450.72 175.531Z" fill="white"/>
<path d="M466.256 275.097C466.107 275.097 465.962 275.013 465.894 274.869C458.639 259.595 451.242 243.25 447.488 226.192C443.328 207.293 444.292 190.195 450.351 175.381C450.411 175.233 450.552 175.137 450.712 175.133C450.873 175.141 451.017 175.217 451.086 175.361C456.928 187.713 461.289 200.638 464.035 213.776C464.079 213.992 463.943 214.205 463.726 214.249C463.509 214.293 463.296 214.157 463.252 213.94C460.578 201.159 456.374 188.579 450.753 176.536C445.067 191 444.232 207.642 448.275 226.019C452.013 242.997 459.389 259.294 466.621 274.528C466.717 274.729 466.629 274.969 466.428 275.061C466.372 275.089 466.316 275.101 466.256 275.101V275.097Z" fill="#86C062"/>
<path d="M467.314 273.169C467.142 273.169 466.981 273.056 466.929 272.884C458.38 244.24 452.751 214.757 450.185 185.251C450.165 185.031 450.33 184.838 450.551 184.818C450.771 184.798 450.968 184.962 450.984 185.183C453.542 214.633 459.163 244.063 467.696 272.655C467.76 272.868 467.64 273.092 467.427 273.153C467.387 273.165 467.351 273.169 467.31 273.169H467.314Z" fill="#86C062"/>
<path d="M476.988 273.96C478.916 258.449 486.236 243.475 497.747 231.492C498.008 247.284 492.19 263.107 481.437 275.848L480.935 276.517H476.699L476.988 273.96Z" fill="white"/>
<path d="M481.44 276.253C481.347 276.253 481.255 276.221 481.183 276.157C481.014 276.013 480.99 275.76 481.135 275.592C491.626 263.16 497.364 247.889 497.356 232.491C486.338 244.249 479.259 258.954 477.388 274.008C477.36 274.229 477.155 274.385 476.939 274.357C476.718 274.329 476.561 274.128 476.589 273.908C478.521 258.373 485.933 243.211 497.457 231.212C497.569 231.096 497.742 231.056 497.894 231.116C498.047 231.176 498.147 231.32 498.147 231.48C498.412 247.408 492.586 263.256 481.745 276.101C481.665 276.193 481.552 276.245 481.436 276.245L481.44 276.253Z" fill="#86C062"/>
<path d="M479.246 275.706C479.194 275.706 479.142 275.694 479.089 275.674C478.885 275.586 478.788 275.354 478.877 275.149L492.107 244.079C492.195 243.875 492.428 243.779 492.633 243.867C492.838 243.955 492.934 244.187 492.846 244.392L479.615 275.462C479.551 275.614 479.403 275.706 479.246 275.706Z" fill="#86C062"/>
<path d="M470.697 275.627C460.534 247.279 461.173 216.101 472.48 188.078C478.716 201.801 480.691 216.755 480.374 231.504C480.057 246.253 477.511 260.886 474.965 275.471L474.728 276.521H470.97L470.693 275.627H470.697Z" fill="white"/>
<path d="M470.701 276.027C470.536 276.027 470.38 275.927 470.324 275.762C460.113 247.278 460.747 216.084 472.114 187.929C472.175 187.78 472.319 187.68 472.48 187.676C472.644 187.668 472.789 187.764 472.853 187.913C478.551 200.453 481.145 214.717 480.783 231.511C480.466 246.312 477.876 261.169 475.371 275.538C475.335 275.754 475.126 275.899 474.905 275.862C474.688 275.826 474.54 275.618 474.58 275.397C477.077 261.057 479.663 246.232 479.98 231.491C480.33 215.202 477.888 201.327 472.508 189.103C461.558 216.842 461.044 247.483 471.078 275.486C471.155 275.694 471.046 275.923 470.837 275.999C470.793 276.015 470.745 276.023 470.701 276.023V276.027Z" fill="#86C062"/>
<path d="M472.409 274.374C472.189 274.374 472.008 274.194 472.008 273.973L472.273 202.036C472.273 201.815 472.454 201.635 472.674 201.635C472.895 201.635 473.076 201.815 473.076 202.036L472.811 273.973C472.811 274.194 472.63 274.374 472.409 274.374Z" fill="#86C062"/>
<path d="M492.542 276.521H458.625V315.962H492.542V276.521Z" fill="white"/>
<path d="M492.545 316.36H458.628C458.407 316.36 458.227 316.179 458.227 315.959V276.518C458.227 276.298 458.407 276.117 458.628 276.117H492.545C492.766 276.117 492.947 276.298 492.947 276.518V315.959C492.947 316.179 492.766 316.36 492.545 316.36ZM459.03 315.558H492.144V276.919H459.03V315.558Z" fill="black"/>
<path d="M423.601 282.434H410.961C410.961 282.434 403.813 279.142 403.083 274.384C402.348 269.629 406.564 266.153 402.717 264.87C398.871 263.591 390.808 260.845 390.623 255.357C390.439 249.869 395.755 250.418 396.851 247.307C397.947 244.196 386.773 238.527 387.507 230.477C388.242 222.427 394.655 218.771 399.782 218.402C404.91 218.033 401.613 202.855 408.941 199.744C416.269 196.633 421.4 203.035 420.666 210.901C419.931 218.767 424.878 218.402 426.713 223.89C428.544 229.378 423.416 233.953 420.85 237.06C418.285 240.171 428.544 244.011 429.094 252.975C429.644 261.94 425.428 262.669 424.147 266.694C422.866 270.719 429.278 276.208 423.597 282.426L423.601 282.434Z" fill="white"/>
<path d="M423.598 282.832H410.958C410.902 282.832 410.842 282.82 410.79 282.796C410.488 282.66 403.442 279.357 402.683 274.446C402.361 272.349 402.956 270.493 403.434 269.001C404.148 266.772 404.365 265.846 402.586 265.253C398.944 264.042 390.416 261.204 390.219 255.375C390.103 251.835 392.139 250.624 393.937 249.558C395.042 248.9 396.082 248.283 396.471 247.18C396.84 246.134 395.238 244.442 393.383 242.482C390.388 239.315 386.658 235.374 387.107 230.451C387.834 222.473 394.174 218.412 399.756 218.015C401.819 217.866 402.357 214.671 402.988 210.971C403.767 206.365 404.654 201.141 408.79 199.385C411.813 198.102 414.745 198.315 417.037 199.986C419.956 202.115 421.506 206.317 421.073 210.947C420.643 215.553 422.177 217.161 423.956 219.025C425.136 220.26 426.357 221.539 427.1 223.772C428.746 228.707 425.06 232.884 422.366 235.935C421.932 236.428 421.522 236.893 421.165 237.322C420.266 238.413 421.342 239.639 423.482 241.897C425.891 244.438 429.192 247.922 429.501 252.957C429.878 259.111 428.043 261.509 426.425 263.621C425.662 264.62 424.939 265.562 424.538 266.825C424.104 268.18 424.642 269.755 425.261 271.579C426.325 274.706 427.65 278.599 423.899 282.704C423.823 282.788 423.715 282.837 423.602 282.837L423.598 282.832ZM411.047 282.031H423.418C426.702 278.326 425.53 274.879 424.494 271.836C423.855 269.96 423.253 268.188 423.767 266.58C424.213 265.185 424.976 264.191 425.783 263.136C427.393 261.036 429.055 258.863 428.698 253.009C428.409 248.263 425.349 245.04 422.896 242.45C420.804 240.245 419.153 238.501 420.543 236.813C420.908 236.368 421.322 235.899 421.759 235.402C424.321 232.495 427.834 228.518 426.333 224.024C425.646 221.964 424.486 220.749 423.369 219.578C421.538 217.658 419.804 215.842 420.27 210.875C420.675 206.525 419.254 202.6 416.559 200.636C414.476 199.116 411.894 198.936 409.099 200.123C405.369 201.706 404.522 206.697 403.775 211.103C403.092 215.136 402.502 218.62 399.808 218.813C394.552 219.189 388.589 223.01 387.902 230.523C387.485 235.089 391.079 238.882 393.961 241.933C396.082 244.174 397.756 245.942 397.226 247.449C396.74 248.824 395.523 249.55 394.347 250.247C392.584 251.294 390.918 252.284 391.022 255.351C391.199 260.623 399.358 263.337 402.839 264.495C405.441 265.361 404.839 267.249 404.196 269.25C403.719 270.733 403.181 272.417 403.478 274.329C404.128 278.559 410.284 281.666 411.051 282.039L411.047 282.031Z" fill="#86C062"/>
<path d="M416.637 280.642C416.508 280.642 416.38 280.582 416.303 280.465C408.843 269.469 405.631 261.491 405.057 240.556C404.426 217.464 411.284 206.772 411.353 206.663C411.473 206.479 411.722 206.427 411.907 206.547C412.091 206.667 412.144 206.916 412.023 207.1C411.955 207.205 405.237 217.716 405.86 240.528C406.426 261.262 409.598 269.148 416.966 280.008C417.09 280.193 417.042 280.441 416.857 280.566C416.789 280.614 416.709 280.634 416.633 280.634L416.637 280.642Z" fill="#86C062"/>
<path d="M435.147 282.252C435.147 282.252 444.306 276.764 443.21 268.168C442.11 259.569 434.232 261.766 433.501 254.085C432.766 246.403 446.326 236.525 442.294 228.84C438.263 221.159 429.104 228.84 427.638 231.766C426.173 234.693 424.157 232.865 419.76 234.877C415.364 236.89 412.433 244.206 415.729 249.695C419.026 255.183 418.845 255.913 414.079 260.307C409.317 264.697 419.391 280.063 423.607 282.44C423.607 282.44 434.966 282.076 435.151 282.256L435.147 282.252Z" fill="white"/>
<path d="M423.6 282.835C423.531 282.835 423.463 282.819 423.403 282.783C419.934 280.826 413.232 271.201 412.489 264.802C412.24 262.653 412.682 261.038 413.802 260.008C418.452 255.722 418.54 255.157 415.38 249.897C413.822 247.307 413.489 244.032 414.457 240.905C415.372 237.95 417.292 235.557 419.588 234.506C421.52 233.62 422.993 233.46 424.178 233.328C425.696 233.159 426.531 233.067 427.278 231.584C428.378 229.387 433.136 225.161 437.3 225.121C437.32 225.121 437.34 225.121 437.364 225.121C439.645 225.121 441.423 226.308 442.652 228.653C445.005 233.139 441.704 238.239 438.512 243.174C436.091 246.914 433.59 250.779 433.903 254.046C434.244 257.614 436.212 258.945 438.299 260.352C440.516 261.848 443.025 263.543 443.612 268.118C444.732 276.873 435.453 282.542 435.36 282.598C435.252 282.662 435.123 282.67 435.015 282.63C434.34 282.538 427.703 282.707 423.624 282.839C423.62 282.839 423.616 282.839 423.612 282.839L423.6 282.835ZM437.352 225.923C437.352 225.923 437.316 225.923 437.3 225.923C433.365 225.959 428.9 230.124 427.988 231.944C427.049 233.821 425.82 233.957 424.262 234.129C423.138 234.254 421.736 234.41 419.918 235.24C417.858 236.182 416.055 238.447 415.22 241.145C414.316 244.052 414.625 247.09 416.067 249.488C419.44 255.1 419.295 256.035 414.344 260.597C413.421 261.447 413.067 262.83 413.284 264.71C413.983 270.724 420.411 280.065 423.7 282.029C431.859 281.768 434.264 281.768 435.031 281.845C435.995 281.231 443.796 275.979 442.805 268.214C442.267 264 440.014 262.481 437.838 261.01C435.69 259.558 433.469 258.059 433.092 254.114C432.754 250.57 435.216 246.762 437.826 242.733C440.893 237.99 444.065 233.091 441.929 229.018C440.849 226.961 439.311 225.919 437.352 225.919V225.923Z" fill="#86C062"/>
<path d="M427.447 280.274C427.29 280.274 427.142 280.181 427.077 280.029C427.029 279.917 422.295 268.595 424.299 253.477C426.314 238.295 434.558 232.234 434.907 231.985C435.088 231.857 435.337 231.897 435.465 232.077C435.594 232.258 435.554 232.506 435.373 232.635C435.289 232.695 427.061 238.768 425.094 253.582C423.118 268.471 427.768 279.604 427.812 279.712C427.901 279.917 427.804 280.149 427.599 280.238C427.547 280.258 427.495 280.27 427.443 280.27L427.447 280.274Z" fill="#86C062"/>
<path d="M437.261 282.031H408.086V315.955H437.261V282.031Z" fill="white"/>
<path d="M437.264 316.361H408.089C407.868 316.361 407.688 316.18 407.688 315.96V282.036C407.688 281.815 407.868 281.635 408.089 281.635H437.264C437.485 281.635 437.666 281.815 437.666 282.036V315.96C437.666 316.18 437.485 316.361 437.264 316.361ZM408.491 315.559H436.863V282.437H408.491V315.559Z" fill="black"/>
<path d="M368.343 332.752H321.593C321.372 332.752 321.191 332.572 321.191 332.351C321.191 332.131 321.372 331.95 321.593 331.95H367.941V315.774C367.941 315.553 368.122 315.373 368.343 315.373H516.599C516.82 315.373 517.001 315.553 517.001 315.774C517.001 315.994 516.82 316.175 516.599 316.175H368.744V332.351C368.744 332.572 368.564 332.752 368.343 332.752Z" fill="black"/>
<path d="M426.381 86.4709C424.033 88.6558 423.9 92.332 426.084 94.6773C426.249 94.8537 426.422 95.0101 426.598 95.1624C425.285 97.1749 424.302 99.3438 423.659 101.593C423.43 101.557 423.193 101.529 422.956 101.521C419.748 101.408 417.054 103.914 416.937 107.121C416.821 110.324 419.331 113.015 422.539 113.127C422.78 113.135 423.013 113.127 423.246 113.107C423.727 115.396 424.55 117.629 425.715 119.726C425.526 119.862 425.341 120.01 425.165 120.171C422.816 122.356 422.683 126.032 424.868 128.377C427.056 130.722 430.734 130.851 433.083 128.666C433.26 128.501 433.416 128.329 433.569 128.153C435.58 129.463 437.753 130.442 440.005 131.087C439.969 131.316 439.941 131.552 439.933 131.789C439.817 134.992 442.326 137.682 445.534 137.794C448.743 137.906 451.437 135.401 451.553 132.194C451.561 131.953 451.553 131.721 451.533 131.488C453.826 131.007 456.062 130.181 458.162 129.014C458.299 129.203 458.443 129.387 458.608 129.564C460.796 131.909 464.474 132.037 466.823 129.852C469.172 127.667 469.305 123.991 467.121 121.646C466.956 121.47 466.783 121.313 466.607 121.161C467.92 119.148 468.903 116.979 469.546 114.73C469.775 114.766 470.012 114.795 470.248 114.803C473.457 114.915 476.151 112.409 476.267 109.202C476.384 105.999 473.874 103.309 470.666 103.196C470.425 103.188 470.192 103.196 469.959 103.216C469.477 100.927 468.654 98.6943 467.49 96.5976C467.679 96.4613 467.863 96.313 468.04 96.1526C470.389 93.9677 470.521 90.2915 468.337 87.9462C466.149 85.6009 462.471 85.4726 460.122 87.6575C459.945 87.8219 459.789 87.9943 459.636 88.1707C457.624 86.8597 455.452 85.8815 453.2 85.2361C453.236 85.0076 453.264 84.771 453.272 84.5345C453.388 81.3313 450.879 78.6413 447.67 78.529C444.462 78.4168 441.768 80.9224 441.652 84.1296C441.644 84.3701 441.652 84.6027 441.672 84.8352C439.379 85.3163 437.142 86.1421 435.042 87.3087C434.906 87.1203 434.761 86.9359 434.597 86.7595C432.408 84.4142 428.73 84.286 426.381 86.4709ZM439.246 100.274C443.611 96.2128 450.441 96.4533 454.5 100.811C458.56 105.169 458.315 111.992 453.95 116.053C449.586 120.114 442.756 119.874 438.692 115.516C434.633 111.158 434.878 104.335 439.242 100.274H439.246Z" fill="#91D0FF"/>
<path d="M363.82 37.7269L363.402 37.8782C360.2 39.0358 357.241 40.6515 354.598 42.6423L354.246 42.9081L353.938 42.5907C353.715 42.3605 353.485 42.1424 353.239 41.9415C349.872 39.221 344.931 39.7376 342.198 43.0957C339.465 46.4571 339.983 51.3852 343.345 54.1057L343.347 54.1072C343.589 54.3051 343.851 54.4812 344.128 54.659L344.497 54.8958L344.31 55.2926C342.902 58.2866 341.929 61.5096 341.458 64.871L341.397 65.3069L340.957 65.3016C340.63 65.2976 340.314 65.302 340.005 65.3383L339.999 65.339L339.999 65.339C335.687 65.7914 332.555 69.6441 333.004 73.9423C333.453 78.2412 337.31 81.3659 341.621 80.9137L363.82 37.7269ZM363.82 37.7269L363.718 37.2937M363.82 37.7269L363.718 37.2937M363.718 37.2937C363.646 36.986 363.59 36.6741 363.556 36.3574C363.107 32.0593 366.239 28.2069 370.551 27.7545C374.863 27.3022 378.72 30.4269 379.169 34.7258L379.169 34.726C379.202 35.0421 379.206 35.3562 379.202 35.6821L379.197 36.1226L379.633 36.1834C383.004 36.6535 386.233 37.6213 389.231 39.0236L389.627 39.2086L389.864 38.8413C390.042 38.5648 390.218 38.3036 390.416 38.0617L390.417 38.0604C393.15 34.702 398.092 34.1856 401.46 36.9068C404.822 39.6272 405.339 44.5551 402.607 47.9164C402.406 48.1619 402.188 48.3917 401.957 48.6143L401.638 48.922L401.905 49.2755C403.899 51.9142 405.517 54.8648 406.672 58.0562L406.824 58.4743L407.257 58.3729C407.565 58.3007 407.877 58.2445 408.195 58.211C412.506 57.7586 416.363 60.8834 416.812 65.1823C417.261 69.4805 414.129 73.3332 409.817 73.7856L409.811 73.7863C409.502 73.8226 409.186 73.827 408.859 73.823L408.419 73.8177L408.358 74.2537C407.887 77.615 406.914 80.838 405.506 83.832L405.319 84.2288L405.688 84.4656C405.965 84.6434 406.227 84.8195 406.469 85.0174L406.471 85.0189C409.833 87.7394 410.35 92.6677 407.618 96.0291C404.885 99.3871 399.944 99.9035 396.576 97.183C396.331 96.9822 396.1 96.7641 395.878 96.5339L395.57 96.2166L395.218 96.4823C392.575 98.4732 389.615 100.089 386.414 101.246L385.996 101.398L386.098 101.831C386.17 102.138 386.226 102.45 386.26 102.767C386.709 107.065 383.577 110.918 379.265 111.37C374.953 111.822 371.096 108.698 370.647 104.399L370.647 104.399C370.614 104.083 370.61 103.768 370.614 103.442L370.619 103.002L370.183 102.941C366.812 102.471 363.583 101.503 360.584 100.101L360.189 99.916L359.952 100.283C359.774 100.56 359.598 100.821 359.4 101.063L359.399 101.064C356.665 104.423 351.723 104.939 348.356 102.218C344.994 99.4973 344.477 94.5698 347.208 91.2085C347.41 90.9629 347.628 90.733 347.859 90.5103L348.178 90.2026L347.911 89.8491C345.917 87.2104 344.299 84.2598 343.143 81.0684L342.992 80.6503M363.718 37.2937L342.992 80.6503M342.992 80.6503L342.559 80.7517M342.992 80.6503L342.559 80.7517M342.559 80.7517C342.251 80.8239 341.939 80.8801 341.621 80.9137L342.559 80.7517ZM390.828 67.8967C389.912 59.1259 382.044 52.7618 373.254 53.6804C364.464 54.599 358.076 62.457 358.992 71.2279C359.908 79.9987 367.776 86.3628 376.566 85.4442C385.356 84.5256 391.744 76.6676 390.828 67.8967Z" fill="#C0CAE5" stroke="#BFCAE5"/>
<path d="M213.687 150.571C213.554 150.571 213.426 150.507 213.345 150.386C213.337 150.374 212.575 149.176 211.109 147.055C210.984 146.87 211.029 146.622 211.213 146.498C211.394 146.373 211.647 146.417 211.771 146.602C213.245 148.735 214.016 149.945 214.024 149.957C214.144 150.146 214.088 150.39 213.9 150.511C213.831 150.555 213.759 150.575 213.683 150.575L213.687 150.571ZM209.129 143.94C209.005 143.94 208.88 143.88 208.804 143.771C208.045 142.713 207.25 141.619 206.443 140.528C206.311 140.352 206.351 140.099 206.527 139.967C206.704 139.835 206.957 139.875 207.09 140.051C207.901 141.146 208.696 142.24 209.459 143.302C209.587 143.483 209.547 143.731 209.366 143.864C209.294 143.916 209.214 143.94 209.133 143.94H209.129ZM204.351 137.481C204.231 137.481 204.11 137.425 204.03 137.321C203.259 136.311 202.444 135.248 201.581 134.146C201.444 133.969 201.476 133.721 201.649 133.585C201.826 133.448 202.075 133.48 202.211 133.653C203.074 134.759 203.893 135.822 204.668 136.836C204.801 137.012 204.769 137.265 204.592 137.397C204.52 137.453 204.436 137.477 204.351 137.477V137.481ZM199.408 131.151C199.292 131.151 199.175 131.099 199.095 130.999C198.284 129.988 197.445 128.95 196.57 127.884C196.429 127.711 196.453 127.459 196.626 127.318C196.798 127.178 197.051 127.202 197.192 127.375C198.067 128.445 198.915 129.483 199.722 130.498C199.862 130.67 199.834 130.923 199.657 131.063C199.585 131.123 199.497 131.151 199.408 131.151ZM194.313 124.945C194.197 124.945 194.084 124.897 194.004 124.801C193.165 123.803 192.297 122.78 191.406 121.746C191.261 121.578 191.281 121.325 191.45 121.181C191.619 121.036 191.872 121.056 192.016 121.225C192.912 122.263 193.779 123.285 194.618 124.288C194.759 124.456 194.739 124.709 194.57 124.853C194.494 124.917 194.401 124.945 194.313 124.945ZM189.077 118.855C188.965 118.855 188.856 118.807 188.776 118.719C187.909 117.733 187.021 116.735 186.11 115.724C185.961 115.56 185.973 115.307 186.142 115.159C186.307 115.011 186.559 115.027 186.708 115.191C187.62 116.205 188.511 117.204 189.378 118.194C189.523 118.362 189.507 118.615 189.342 118.759C189.266 118.827 189.173 118.859 189.077 118.859V118.855ZM183.709 112.886C183.6 112.886 183.492 112.842 183.411 112.758C182.52 111.788 181.609 110.809 180.681 109.823C180.529 109.663 180.537 109.406 180.697 109.258C180.858 109.106 181.115 109.114 181.263 109.274C182.195 110.264 183.106 111.242 184.002 112.216C184.15 112.381 184.142 112.633 183.978 112.782C183.901 112.854 183.805 112.886 183.705 112.886H183.709ZM178.208 107.041C178.103 107.041 177.999 107.001 177.919 106.917C177.003 105.966 176.072 105.008 175.12 104.046C174.963 103.89 174.967 103.633 175.124 103.481C175.281 103.325 175.538 103.329 175.69 103.485C176.642 104.451 177.577 105.409 178.493 106.363C178.645 106.524 178.641 106.776 178.481 106.929C178.404 107.005 178.304 107.041 178.204 107.041H178.208ZM172.574 101.32C172.474 101.32 172.369 101.28 172.293 101.204C171.354 100.274 170.402 99.3355 169.43 98.3974C169.27 98.2451 169.266 97.9885 169.422 97.8322C169.575 97.6718 169.832 97.6678 169.988 97.8241C170.96 98.7663 171.916 99.7044 172.855 100.638C173.012 100.795 173.012 101.047 172.855 101.204C172.775 101.284 172.675 101.324 172.57 101.324L172.574 101.32ZM166.812 95.7314C166.712 95.7314 166.616 95.6954 166.535 95.6232C165.572 94.7132 164.596 93.7991 163.608 92.885C163.443 92.7327 163.435 92.4801 163.588 92.3198C163.737 92.1554 163.994 92.1474 164.154 92.2997C165.146 93.2178 166.126 94.1319 167.089 95.0459C167.25 95.1982 167.258 95.4508 167.105 95.6112C167.025 95.6954 166.921 95.7355 166.812 95.7355V95.7314ZM160.918 90.2792C160.822 90.2792 160.725 90.2431 160.649 90.175C159.665 89.285 158.665 88.395 157.657 87.505C157.493 87.3566 157.477 87.1041 157.621 86.9397C157.766 86.7753 158.023 86.7593 158.187 86.9036C159.199 87.7976 160.199 88.6876 161.187 89.5776C161.352 89.7259 161.364 89.9785 161.215 90.1429C161.135 90.2311 161.026 90.2752 160.918 90.2752V90.2792ZM154.895 84.9713C154.803 84.9713 154.71 84.9392 154.634 84.875C153.626 84.0091 152.606 83.1432 151.578 82.2812C151.41 82.1409 151.386 81.8843 151.53 81.7159C151.675 81.5476 151.928 81.5235 152.096 81.6678C153.128 82.5338 154.152 83.3997 155.16 84.2697C155.329 84.414 155.349 84.6666 155.204 84.835C155.124 84.9272 155.011 84.9753 154.899 84.9753L154.895 84.9713ZM148.744 79.8157C148.655 79.8157 148.563 79.7876 148.491 79.7235C147.463 78.8816 146.423 78.0437 145.371 77.2098C145.198 77.0735 145.17 76.8209 145.306 76.6445C145.443 76.4722 145.696 76.4441 145.873 76.5804C146.929 77.4183 147.969 78.2602 149.001 79.1021C149.173 79.2424 149.197 79.495 149.057 79.6673C148.976 79.7636 148.864 79.8157 148.748 79.8157H148.744ZM142.46 74.8205C142.375 74.8205 142.287 74.7924 142.215 74.7363C141.155 73.9184 140.083 73.0966 139.031 72.3028C138.854 72.1705 138.818 71.9179 138.95 71.7415C139.083 71.5651 139.336 71.5291 139.512 71.6613C140.572 72.4591 141.645 73.281 142.709 74.1028C142.885 74.2391 142.917 74.4917 142.781 74.6641C142.701 74.7643 142.584 74.8205 142.464 74.8205H142.46ZM136.047 69.9896C135.963 69.9896 135.883 69.9655 135.81 69.9134C134.738 69.1277 133.646 68.3379 132.562 67.5681C132.381 67.4399 132.341 67.1873 132.47 67.0109C132.598 66.8305 132.847 66.7904 133.028 66.9187C134.116 67.6924 135.212 68.4822 136.288 69.272C136.469 69.4043 136.505 69.6528 136.376 69.8332C136.296 69.9415 136.176 69.9976 136.051 69.9976L136.047 69.9896Z" fill="#BBC5E0"/>
<path d="M226.522 145.174C226.321 145.174 226.148 145.026 226.124 144.822C226.124 144.806 225.951 143.386 225.53 140.861C225.494 140.644 225.642 140.436 225.859 140.4C226.08 140.364 226.285 140.512 226.321 140.728C226.746 143.278 226.919 144.713 226.923 144.725C226.947 144.946 226.791 145.146 226.57 145.17C226.554 145.17 226.538 145.17 226.522 145.17V145.174ZM225.213 137.245C225.024 137.245 224.855 137.112 224.819 136.92C224.574 135.637 224.309 134.318 224.028 132.991C223.984 132.775 224.12 132.562 224.337 132.514C224.554 132.47 224.767 132.606 224.815 132.823C225.096 134.154 225.365 135.481 225.61 136.764C225.65 136.98 225.51 137.192 225.293 137.233C225.269 137.237 225.241 137.241 225.217 137.241L225.213 137.245ZM223.55 129.391C223.366 129.391 223.201 129.267 223.161 129.078C222.864 127.787 222.55 126.476 222.225 125.181C222.173 124.965 222.301 124.749 222.518 124.696C222.735 124.644 222.952 124.773 223.004 124.989C223.329 126.288 223.643 127.603 223.94 128.898C223.988 129.114 223.855 129.331 223.639 129.379C223.606 129.387 223.578 129.391 223.546 129.391H223.55ZM221.615 121.601C221.438 121.601 221.274 121.481 221.225 121.305C220.884 120.026 220.527 118.723 220.165 117.44C220.105 117.228 220.23 117.007 220.442 116.947C220.655 116.887 220.876 117.011 220.936 117.224C221.302 118.511 221.659 119.813 222 121.1C222.057 121.313 221.928 121.533 221.715 121.589C221.679 121.597 221.647 121.601 221.611 121.601H221.615ZM219.427 113.88C219.254 113.88 219.093 113.768 219.041 113.595C218.66 112.325 218.262 111.038 217.857 109.767C217.788 109.554 217.905 109.33 218.118 109.262C218.326 109.194 218.555 109.31 218.623 109.522C219.029 110.797 219.427 112.088 219.812 113.363C219.876 113.575 219.756 113.8 219.543 113.864C219.503 113.876 219.467 113.88 219.427 113.88ZM216.997 106.235C216.829 106.235 216.672 106.131 216.616 105.962C216.194 104.703 215.757 103.429 215.311 102.174C215.239 101.965 215.347 101.737 215.556 101.661C215.765 101.588 215.993 101.697 216.07 101.905C216.511 103.16 216.953 104.439 217.379 105.706C217.451 105.914 217.335 106.143 217.126 106.215C217.082 106.231 217.041 106.235 216.997 106.235ZM214.327 98.6699C214.163 98.6699 214.01 98.5697 213.95 98.4093C213.488 97.1585 213.006 95.8997 212.528 94.6649C212.448 94.4605 212.552 94.2279 212.757 94.1477C212.962 94.0676 213.195 94.1678 213.275 94.3763C213.757 95.615 214.239 96.8779 214.705 98.1327C214.781 98.3412 214.676 98.5697 214.468 98.6499C214.424 98.6659 214.375 98.6739 214.327 98.6739V98.6699ZM211.416 91.1931C211.259 91.1931 211.107 91.1009 211.043 90.9445C210.541 89.7178 210.023 88.471 209.501 87.2482C209.412 87.0438 209.509 86.8073 209.714 86.7231C209.918 86.6349 210.155 86.7311 210.24 86.9355C210.766 88.1623 211.284 89.4091 211.785 90.6439C211.87 90.8483 211.769 91.0809 211.565 91.165C211.516 91.1851 211.464 91.1931 211.412 91.1931H211.416ZM208.264 83.8165C208.111 83.8165 207.963 83.7283 207.899 83.58C207.353 82.3613 206.794 81.1385 206.232 79.9358C206.14 79.7354 206.224 79.4948 206.425 79.4026C206.626 79.3104 206.867 79.3946 206.959 79.595C207.521 80.7977 208.083 82.0285 208.629 83.2513C208.722 83.4517 208.629 83.6922 208.425 83.7804C208.372 83.8045 208.316 83.8165 208.26 83.8165H208.264ZM204.867 76.5482C204.719 76.5482 204.574 76.464 204.506 76.3237C203.924 75.129 203.321 73.9263 202.719 72.7396C202.619 72.5432 202.699 72.3027 202.896 72.1984C203.092 72.0982 203.333 72.1784 203.434 72.3748C204.04 73.5615 204.642 74.7722 205.229 75.9709C205.325 76.1713 205.245 76.4119 205.044 76.5081C204.988 76.5362 204.927 76.5482 204.867 76.5482ZM201.221 69.4001C201.077 69.4001 200.94 69.324 200.868 69.1877C200.242 68.013 199.599 66.8263 198.953 65.6717C198.844 65.4793 198.916 65.2348 199.109 65.1265C199.302 65.0183 199.547 65.0904 199.655 65.2829C200.302 66.4455 200.948 67.6322 201.575 68.8108C201.679 69.0072 201.603 69.2478 201.41 69.352C201.35 69.3841 201.286 69.4001 201.221 69.4001ZM197.322 62.3884C197.182 62.3884 197.049 62.3162 196.973 62.1879C196.303 61.0333 195.616 59.8747 194.933 58.7442C194.817 58.5558 194.881 58.3072 195.07 58.1949C195.259 58.0787 195.508 58.1428 195.62 58.3313C196.307 59.4658 196.997 60.6324 197.668 61.787C197.78 61.9794 197.712 62.224 197.523 62.3363C197.459 62.3723 197.391 62.3884 197.322 62.3884Z" fill="#BBC5E0"/>
<path d="M236.648 138.432C236.648 138.432 236.636 138.432 236.628 138.432C236.407 138.42 236.235 138.232 236.247 138.011C236.247 137.995 236.319 136.572 236.52 133.994C236.536 133.774 236.733 133.613 236.949 133.625C237.17 133.641 237.335 133.834 237.319 134.054C237.118 136.62 237.05 138.035 237.046 138.051C237.034 138.268 236.857 138.432 236.644 138.432H236.648ZM237.259 130.426C237.259 130.426 237.234 130.426 237.222 130.426C237.002 130.406 236.841 130.21 236.861 129.989C236.973 128.778 237.102 127.443 237.251 125.992C237.275 125.772 237.471 125.611 237.692 125.635C237.913 125.659 238.074 125.856 238.05 126.076C237.901 127.528 237.772 128.859 237.66 130.065C237.64 130.274 237.467 130.43 237.263 130.43L237.259 130.426ZM238.082 122.448C238.082 122.448 238.05 122.448 238.037 122.448C237.817 122.424 237.66 122.224 237.684 122.003C237.829 120.74 237.985 119.409 238.154 118.018C238.182 117.798 238.383 117.637 238.6 117.669C238.82 117.697 238.977 117.898 238.949 118.114C238.776 119.505 238.62 120.832 238.479 122.091C238.455 122.296 238.282 122.448 238.082 122.448ZM239.061 114.486C239.061 114.486 239.025 114.486 239.009 114.486C238.788 114.458 238.636 114.254 238.664 114.037C238.833 112.754 239.013 111.427 239.21 110.06C239.242 109.84 239.447 109.687 239.664 109.719C239.885 109.752 240.037 109.952 240.005 110.173C239.812 111.54 239.632 112.863 239.463 114.141C239.435 114.342 239.262 114.49 239.065 114.49L239.061 114.486ZM240.182 106.544C240.182 106.544 240.141 106.544 240.121 106.54C239.901 106.508 239.752 106.304 239.784 106.083C239.977 104.792 240.182 103.469 240.398 102.118C240.435 101.898 240.639 101.75 240.856 101.786C241.077 101.822 241.226 102.026 241.19 102.243C240.977 103.594 240.772 104.913 240.579 106.204C240.551 106.404 240.378 106.544 240.182 106.544ZM241.438 98.6226C241.418 98.6226 241.394 98.6226 241.37 98.6186C241.153 98.5825 241.005 98.374 241.041 98.1575C241.258 96.8626 241.483 95.5436 241.719 94.2006C241.76 93.9841 241.964 93.8358 242.185 93.8759C242.402 93.916 242.551 94.1204 242.511 94.3409C242.274 95.6799 242.049 96.9949 241.832 98.2898C241.8 98.4863 241.627 98.6266 241.434 98.6266L241.438 98.6226ZM242.828 90.7248C242.804 90.7248 242.78 90.7248 242.755 90.7168C242.539 90.6767 242.394 90.4682 242.434 90.2517C242.675 88.9568 242.92 87.6419 243.177 86.3069C243.217 86.0904 243.43 85.9461 243.647 85.9902C243.864 86.0303 244.008 86.2427 243.964 86.4592C243.707 87.7902 243.458 89.1012 243.221 90.3961C243.185 90.5885 243.016 90.7248 242.828 90.7248ZM244.346 82.8511C244.317 82.8511 244.293 82.8511 244.265 82.8431C244.048 82.799 243.908 82.5865 243.952 82.37C244.213 81.0751 244.482 79.7642 244.763 78.4412C244.807 78.2247 245.02 78.0844 245.237 78.1325C245.454 78.1766 245.594 78.3891 245.546 78.6056C245.269 79.9285 245 81.2355 244.739 82.5304C244.699 82.7188 244.534 82.8511 244.346 82.8511Z" fill="#BBC5E0"/>
<path d="M120.575 115.863C120.519 115.863 120.463 115.851 120.407 115.827C119.583 115.45 118.323 115.033 116.656 114.588C116.443 114.532 116.315 114.312 116.371 114.099C116.427 113.887 116.648 113.759 116.865 113.815C118.572 114.272 119.877 114.705 120.74 115.102C120.941 115.194 121.029 115.43 120.937 115.635C120.868 115.783 120.724 115.867 120.571 115.867L120.575 115.863ZM112.854 113.662C112.826 113.662 112.798 113.662 112.769 113.654C111.541 113.386 110.22 113.121 108.843 112.861C108.626 112.82 108.481 112.612 108.521 112.391C108.561 112.175 108.774 112.031 108.991 112.071C110.376 112.331 111.705 112.6 112.942 112.869C113.159 112.917 113.295 113.129 113.247 113.346C113.207 113.534 113.038 113.662 112.854 113.662ZM104.956 112.167C104.936 112.167 104.912 112.167 104.891 112.163C103.534 111.938 102.197 111.734 100.928 111.558C100.708 111.526 100.555 111.325 100.587 111.105C100.619 110.884 100.82 110.732 101.041 110.764C102.318 110.944 103.659 111.149 105.024 111.373C105.241 111.409 105.389 111.614 105.353 111.834C105.321 112.031 105.152 112.171 104.956 112.171V112.167ZM96.9894 111.068C96.9894 111.068 96.9613 111.068 96.9493 111.068C96.3028 111 95.7166 110.952 95.2026 110.916C94.9818 110.9 94.8131 110.708 94.8292 110.487C94.8452 110.267 95.034 110.098 95.2588 110.114C95.7808 110.15 96.3751 110.203 97.0296 110.271C97.2504 110.295 97.411 110.491 97.3869 110.712C97.3668 110.916 97.1902 111.072 96.9894 111.072V111.068Z" fill="#BBC5E0"/>
<path d="M200.85 161.355C200.75 161.355 200.646 161.315 200.569 161.239C200.561 161.231 199.549 160.237 197.618 158.549C197.449 158.405 197.433 158.148 197.582 157.984C197.727 157.819 197.984 157.799 198.148 157.948C200.096 159.655 201.123 160.662 201.132 160.67C201.288 160.826 201.292 161.079 201.132 161.235C201.051 161.315 200.951 161.355 200.846 161.355H200.85ZM194.824 156.047C194.735 156.047 194.643 156.015 194.567 155.955C193.563 155.125 192.515 154.279 191.451 153.441C191.278 153.305 191.246 153.053 191.382 152.88C191.519 152.708 191.772 152.676 191.945 152.812C193.017 153.654 194.069 154.504 195.076 155.338C195.249 155.478 195.269 155.731 195.129 155.903C195.048 155.999 194.936 156.047 194.819 156.047H194.824ZM188.52 151.076C188.435 151.076 188.351 151.048 188.279 150.996C187.235 150.21 186.15 149.408 185.058 148.615C184.878 148.486 184.837 148.234 184.97 148.053C185.098 147.873 185.351 147.833 185.532 147.965C186.632 148.759 187.72 149.565 188.768 150.355C188.945 150.487 188.981 150.739 188.845 150.916C188.764 151.02 188.644 151.076 188.524 151.076H188.52ZM182.019 146.37C181.938 146.37 181.858 146.345 181.79 146.297C180.702 145.54 179.59 144.782 178.477 144.04C178.293 143.916 178.244 143.667 178.369 143.483C178.493 143.299 178.742 143.251 178.927 143.375C180.039 144.121 181.155 144.882 182.248 145.64C182.428 145.768 182.472 146.017 182.348 146.197C182.272 146.309 182.143 146.37 182.019 146.37ZM175.345 141.908C175.269 141.908 175.197 141.887 175.129 141.843C174.004 141.122 172.864 140.4 171.74 139.707C171.551 139.59 171.495 139.342 171.611 139.153C171.728 138.965 171.977 138.905 172.165 139.025C173.294 139.723 174.438 140.444 175.566 141.17C175.751 141.29 175.807 141.539 175.687 141.723C175.61 141.843 175.482 141.908 175.349 141.908H175.345ZM168.519 137.682C168.451 137.682 168.379 137.666 168.315 137.626C167.166 136.944 166.002 136.263 164.853 135.605C164.661 135.497 164.596 135.249 164.705 135.06C164.817 134.868 165.058 134.804 165.255 134.912C166.407 135.573 167.576 136.255 168.728 136.94C168.917 137.053 168.981 137.301 168.869 137.49C168.792 137.614 168.66 137.686 168.523 137.686L168.519 137.682Z" fill="#BBC5E0"/>
<path d="M280.527 50.8108C284.254 37.124 276.161 23.0116 262.45 19.2899C248.74 15.5681 234.604 23.6464 230.877 37.3331C227.15 51.0199 235.243 65.1323 248.954 68.8541C262.664 72.5758 276.8 64.4976 280.527 50.8108Z" fill="#FFEECD"/>
<path d="M266.395 39.3265C266.397 39.287 266.402 39.2488 266.402 39.2094C266.402 33.3927 261.686 28.6768 255.869 28.6768C250.848 28.6768 246.656 32.1933 245.6 36.8948C241.661 37.9428 238.754 41.5226 238.754 45.7922C238.754 50.8821 242.88 55.0082 247.97 55.0082H265.085C269.449 55.0082 272.985 51.4719 272.985 47.1088C272.985 43.1933 270.133 39.9519 266.395 39.3265Z" stroke="#EBC170" stroke-width="2" stroke-miterlimit="10" stroke-linecap="round" stroke-linejoin="round"/>
<path d="M250.605 43.159L254.555 47.1087L261.138 40.5259" stroke="#EBC170" stroke-width="2" stroke-miterlimit="10" stroke-linecap="round" stroke-linejoin="round"/>
<path d="M209.335 46.8697C213.072 33.1855 204.989 19.0674 191.281 15.3361C177.573 11.6048 163.432 19.6732 159.695 33.3574C155.959 47.0415 164.042 61.1596 177.75 64.8909C191.457 68.6222 205.599 60.5538 209.335 46.8697Z" fill="#FFE2DC"/>
<g clip-path="url(#clip0_3060_25941)">
<path d="M184.723 25.0171C177.57 25.0171 171.75 30.8371 171.75 37.9901C171.75 45.143 177.57 50.963 184.723 50.963C191.876 50.963 197.696 45.143 197.696 37.9901C197.696 30.8371 191.876 25.0171 184.723 25.0171ZM184.723 49.882C178.166 49.882 172.831 44.5474 172.831 37.9901C172.831 31.4328 178.166 26.0982 184.723 26.0982C191.28 26.0982 196.615 31.4328 196.615 37.9901C196.615 44.5474 191.28 49.882 184.723 49.882Z" fill="#FF7F65"/>
<path d="M183.643 31.5035H185.805C187.296 31.5035 188.508 32.7159 188.508 34.2062H189.589C189.589 32.1197 187.891 30.4224 185.805 30.4224H185.265V28.8008H184.184V30.4224H183.643C181.557 30.4224 179.859 32.1197 179.859 34.2062V34.7467C179.859 36.8332 181.557 38.5305 183.643 38.5305H185.805C187.296 38.5305 188.508 39.7429 188.508 41.2332V41.7738C188.508 43.264 187.296 44.4765 185.805 44.4765H183.643C182.153 44.4765 180.94 43.264 180.94 41.7738H179.859C179.859 43.8602 181.557 45.5575 183.643 45.5575H184.184V47.1792H185.265V45.5575H185.805C187.891 45.5575 189.589 43.8602 189.589 41.7738V41.2332C189.589 39.1467 187.891 37.4494 185.805 37.4494H183.643C182.153 37.4494 180.94 36.237 180.94 34.7467V34.2062C180.94 32.7159 182.153 31.5035 183.643 31.5035Z" fill="#FF7F65"/>
</g>
<path d="M125.787 50.7639C129.511 37.0765 121.416 22.9655 107.705 19.2461C93.9936 15.5267 79.8592 23.6074 76.1346 37.2948C72.41 50.9823 80.5056 65.0933 94.2166 68.8126C107.928 72.532 122.062 64.4513 125.787 50.7639Z" fill="#D1FFE0"/>
<path d="M104.872 45.0508H100.496V44.6799C100.496 43.7158 100.867 42.8258 101.534 42.1584L102.721 40.9717C103.388 40.3042 103.759 39.3401 103.759 38.376C103.759 37.4118 103.166 37.1152 102.499 37.1152C101.831 37.1152 101.238 37.7085 101.238 38.376V39.3401H100.496V38.376C100.496 37.2635 101.386 36.3735 102.499 36.3735C103.611 36.3735 104.501 37.2635 104.501 38.376C104.501 39.4884 104.056 40.6751 103.24 41.4909L102.054 42.6775C101.609 43.1225 101.312 43.7158 101.238 44.3091H104.798V45.0508H104.872Z" fill="#078E36"/>
<path d="M109.841 45.3474H109.099V42.3808H105.762V41.2684L108.58 36.3735H109.841V41.6392H111.472V42.3808H109.841V45.3474ZM106.578 41.7134H109.173V37.1893H109.099L106.578 41.565V41.7875V41.7134Z" fill="#078E36"/>
<path d="M104.946 60.3278C103.092 60.3278 101.312 59.5861 99.9774 58.2512L87.2953 45.5691C85.9604 44.2341 85.2188 42.5283 85.2188 40.6001C85.2188 38.6718 85.9604 36.966 87.2953 35.6311L90.3361 32.5903L97.3817 39.6359L94.3409 42.6767C93.7476 43.27 93.7476 44.3083 94.3409 44.9758L100.422 51.0572C101.016 51.6506 102.054 51.6506 102.722 51.0572L105.762 48.0165L112.808 55.0621L109.767 58.1028C108.432 59.4378 106.726 60.1794 104.798 60.1794L104.946 60.3278ZM90.4102 33.7028L87.8886 36.2244C86.702 37.411 86.0345 38.9685 86.0345 40.6742C86.0345 42.38 86.702 43.9375 87.8886 45.1241L100.571 57.8062C103.018 60.2536 106.949 60.2536 109.396 57.8062L111.918 55.2846L105.911 49.2773L103.389 51.7989C102.499 52.6889 100.942 52.6889 100.052 51.7989L93.9701 45.7174C93.0802 44.8274 93.0802 43.27 93.9701 42.38L96.4917 39.8584L90.4844 33.8511L90.4102 33.7028Z" fill="#078E36"/>
<path d="M88.8213 34.7627L88.2969 35.2871L94.8521 41.8424L95.3766 41.3179L88.8213 34.7627Z" fill="#078E36"/>
<path d="M104.185 50.2622L103.66 50.7866L110.215 57.3419L110.74 56.8175L104.185 50.2622Z" fill="#078E36"/>
<path d="M113.7 52.7634L113.106 52.3184C114.886 49.871 115.776 47.0527 115.776 44.012C115.776 36.1506 109.398 29.8466 101.611 29.8466C96.9537 29.7568 94.3464 32.0382 93.3044 32.5165L92.8594 31.9232C95.381 30.0691 98.4217 29.105 101.611 29.105C109.843 29.105 116.518 35.7798 116.518 44.012C116.509 46.3784 116.183 49.3117 113.7 52.7634Z" fill="#078E36"/>
<path d="M83.7183 118.524C87.4644 104.843 79.3911 90.719 65.686 86.9781C51.9809 83.2372 37.8338 91.2958 34.0877 104.977C30.3415 118.659 38.4149 132.783 52.12 136.523C65.8251 140.264 79.9722 132.206 83.7183 118.524Z" fill="#D5F9FF"/>
<path d="M66.9473 127.83H64.4709L64.2458 125.325C64.2458 125.325 64.2458 125.325 64.2458 125.245C63.4954 125.083 62.82 124.76 62.1447 124.356C62.1447 124.356 62.1447 124.356 62.0696 124.356L60.2686 125.891L58.5427 124.033L59.9685 122.094C59.9685 122.094 59.9685 122.094 59.9685 122.013C59.5933 121.367 59.2931 120.64 59.143 119.832H58.993L56.8918 119.509V116.843L59.2181 116.52C59.3682 115.712 59.6683 114.985 60.0435 114.339C60.0435 114.339 60.0435 114.339 60.0435 114.258L58.6178 112.319L60.3437 110.461L62.1447 111.996C62.1447 111.996 62.1447 111.996 62.2197 111.996C62.8951 111.512 63.5704 111.269 64.3208 111.108C64.3208 111.108 64.3208 111.108 64.3208 111.027L64.546 108.523H67.0223L67.2475 111.027C67.2475 111.027 67.2475 111.027 67.2475 111.108C67.9979 111.269 68.6732 111.592 69.3486 111.996C69.3486 111.996 69.3486 111.996 69.4236 111.996L71.2246 110.461L72.9505 112.319L71.5248 114.258C71.5248 114.258 71.5248 114.258 71.5248 114.339C71.9 115.066 72.2001 115.712 72.3502 116.52C72.3502 116.52 72.3502 116.52 72.4253 116.52L74.7515 116.763V119.428L72.4253 119.671C72.2752 120.479 71.975 121.206 71.5998 121.933V122.013L73.0256 123.952L71.2997 125.81L69.5737 124.275H69.4987C68.8233 124.76 68.1479 125.083 67.3975 125.245C67.3975 125.245 67.3975 125.245 67.3975 125.325L67.1724 127.83H66.9473ZM65.1463 127.022H66.2719L66.422 125.325C66.422 124.922 66.7222 124.598 67.0974 124.518C67.7727 124.356 68.3731 124.033 68.9734 123.629C69.3486 123.387 69.7988 123.467 70.024 123.791L71.0745 124.76L71.9 123.871L70.9244 122.579C70.6993 122.337 70.6243 121.852 70.8494 121.529C71.2246 120.882 71.4497 120.236 71.5998 119.509C71.6749 119.105 71.975 118.863 72.3502 118.782L74.0011 118.621V117.409L72.4253 117.247C72.0501 117.247 71.7499 116.924 71.6749 116.601C71.5248 115.955 71.2997 115.308 70.9244 114.743C70.6993 114.501 70.6993 114.016 70.9244 113.693L71.0745 113.531L71.975 112.239L71.2246 111.431L69.9489 112.481C69.7238 112.723 69.2735 112.804 68.9734 112.562C68.3731 112.158 67.7727 111.916 67.0974 111.754C66.7222 111.673 66.422 111.269 66.422 110.865V110.704L66.2719 109.169H65.1463L64.9962 110.865C64.9962 111.269 64.696 111.592 64.3208 111.673C63.7205 111.835 63.1202 112.077 62.5199 112.481C62.2197 112.723 61.7695 112.723 61.4693 112.481L61.3192 112.319L60.1936 111.35L59.3682 112.239L60.4187 113.612C60.6439 113.935 60.6439 114.339 60.4187 114.662C60.0435 115.228 59.8184 115.874 59.6683 116.601C59.5933 116.924 59.2931 117.247 58.993 117.247H58.8429L57.342 117.49V118.701L59.068 118.944C59.3681 118.944 59.6683 119.267 59.7434 119.59C59.8934 120.236 60.1186 120.882 60.4938 121.529C60.6439 121.852 60.6439 122.256 60.4938 122.579L59.4432 124.033L60.1936 124.841L61.4693 123.71C61.7695 123.467 62.1447 123.467 62.4448 123.71C62.9701 124.114 63.5704 124.356 64.2458 124.518C64.6961 124.598 64.9212 125.002 64.9212 125.406V125.568L65.0712 127.103L65.1463 127.022ZM43.2344 122.74V121.933H45.7107V111.754H50.2132V102.949H54.7156V95.8398H59.9685V100.364H64.4709V104.403H68.9734V110.623H68.223V105.211H64.4709V107.796H63.7205V101.171H59.9685V109.007H59.2181V96.5669H55.466V122.66H43.2344V122.74ZM50.9636 121.933H54.7156V103.757H50.9636V121.933ZM46.4611 121.933H50.2132V112.562H46.4611V121.933Z" fill="#096575"/>
<path d="M65.7481 122.094C64.7726 122.094 63.7971 121.69 63.1217 120.882C62.4463 120.155 61.9961 119.105 61.9961 118.055C61.9961 115.874 63.647 114.016 65.7481 114.016C67.7742 114.016 69.5002 115.793 69.5002 118.055C69.5002 120.236 67.8493 122.094 65.7481 122.094ZM65.7481 114.904C64.0972 114.904 62.7465 116.358 62.7465 118.136C62.7465 119.024 63.0467 119.832 63.647 120.397C64.2473 120.963 64.9227 121.367 65.7481 121.367C67.399 121.367 68.7498 119.913 68.7498 118.136C68.7498 116.358 67.399 114.904 65.7481 114.904Z" fill="#096575"/>
<ellipse cx="127" cy="349.5" rx="127" ry="3.5" fill="url(#paint0_radial_3060_25941)" fill-opacity="0.5"/>
<defs>
<radialGradient id="paint0_radial_3060_25941" cx="0" cy="0" r="1" gradientUnits="userSpaceOnUse" gradientTransform="translate(127 349.5) scale(127 3.5)">
<stop stop-color="#A4A4A4"/>
<stop offset="1" stop-color="white"/>
</radialGradient>
<clipPath id="clip0_3060_25941">
<rect width="27.027" height="27.027" fill="white" transform="translate(171.211 24.4766)"/>
</clipPath>
</defs>
</svg>
